<svg width="1440" height="1166" fill="none" xmlns="http://www.w3.org/2000/svg"><path fill="#FFFAF3" d="M0 0h1440v1167H0z"/><path d="M1071.32 975.855c-6.53-5.426-7.03-16.625 1.18-25.542 8.28-8.999 20.02-9.895 26.49-4.518 7.59 6.303 5.86 17.798-1.06 25.419l-15.52 18.261 1.47 2.087 23.71-6.592c8.41-2.631 18.65-1.183 23.52 5.749.02.024.03.048.05.072 7.18-.178 14.69 3.626 19.15 9.969l2.33 3.33-7 4.43-2.33-3.32c-2.36-3.36-6.21-5.7-9.93-6.284-.55 7.664-7.35 13.864-15.24 16.384-11.93 3.8-22.54-1.04-25.28-8.78-1.04-2.94-.93-6.15.25-9.217l-8.52 2.361-40.55 48.046c-7.28 8.57-20.54 9.93-29.56 3.02l-3.25-2.49 21.68-25.95-33.504 9.13-1.173-3.82c-3.245-10.57 3.167-21.67 14.307-24.76l62.27-17.107 5.57-6.561c-3.44-.146-6.6-1.281-9.06-3.317zm22.14-24.048c-4.04-3.352-11.04-.139-14.63 3.762-3.71 4.025-5.96 10.963-1.97 14.274 4.04 3.352 11.04.139 14.63-3.762 3.58-3.892 6.01-10.921 1.97-14.274zm7.37 52.163c1.71 4.83 9.46 5.41 14.63 3.76 5.16-1.65 10.99-6.56 9.28-11.387-1.71-4.829-9.46-5.405-14.64-3.755-5.15 1.646-10.98 6.555-9.27 11.382zm-77.39 42.5c4.91 1.65 10.6.29 14.04-3.76l23.76-28.14-14.44 3.93-23.36 27.97zm-8.56-35.96c-5.27 1.46-8.78 5.92-9.06 10.85l64.53-17.58 6.54-7.78-1.48-2.1-60.53 16.61zm5.19-557.043c-6.53-5.426-7.03-16.625 1.18-25.542 8.28-8.999 20.02-9.895 26.49-4.518 7.59 6.303 5.87 17.798-1.06 25.419l-15.52 18.261 1.47 2.087 23.71-6.592c8.42-2.631 18.66-1.183 23.52 5.749.02.024.03.048.05.072 7.18-.178 14.69 3.626 19.15 9.973l2.33 3.321-7 4.432-2.33-3.322c-2.36-3.357-6.21-5.695-9.93-6.279-.55 7.668-7.35 13.864-15.24 16.381-11.93 3.807-22.54-1.037-25.28-8.781-1.04-2.933-.93-6.143.25-9.213l-8.52 2.361-40.553 48.045c-7.272 8.572-20.533 9.927-29.559 3.022l-3.25-2.486 21.681-25.957-33.503 9.131-1.172-3.816c-3.245-10.568 3.166-21.676 14.303-24.763l62.273-17.107 5.57-6.561c-3.44-.146-6.6-1.281-9.06-3.317zm22.14-24.048c-4.04-3.353-11.04-.139-14.63 3.762-3.71 4.025-5.96 10.963-1.97 14.274 4.04 3.352 11.04.139 14.63-3.762 3.58-3.892 6.01-10.921 1.97-14.274zm7.37 52.165c1.71 4.829 9.46 5.406 14.63 3.755 5.16-1.646 10.99-6.555 9.28-11.384-1.71-4.829-9.46-5.406-14.63-3.755-5.16 1.646-10.99 6.555-9.28 11.384zm-77.389 42.5c4.909 1.652 10.6.293 14.043-3.766l23.756-28.14-14.435 3.934-23.364 27.972zm-8.558-35.964c-5.27 1.461-8.778 5.922-9.064 10.856l64.531-17.589 6.54-7.775-1.48-2.1-60.527 16.608zM758.339 263.982c-6.535-5.426-7.033-16.626 1.175-25.542 8.283-8.999 20.019-9.896 26.494-4.518 7.591 6.303 5.861 17.798-1.066 25.419l-15.517 18.26 1.466 2.088 23.712-6.592c8.416-2.631 18.656-1.183 23.524 5.749.017.023.031.048.047.072 7.177-.178 14.689 3.626 19.146 9.972l2.333 3.322-6.994 4.431-2.333-3.321c-2.358-3.357-6.209-5.696-9.93-6.28-.548 7.669-7.355 13.865-15.243 16.382-11.93 3.807-22.542-1.037-25.281-8.781-1.037-2.934-.925-6.143.253-9.213l-8.517 2.361-40.557 48.045c-7.272 8.572-20.533 9.927-29.559 3.022l-3.25-2.486 21.681-25.957-33.503 9.131-1.172-3.816c-3.245-10.569 3.166-21.676 14.303-24.764l62.274-17.106 5.567-6.561c-3.437-.146-6.601-1.281-9.053-3.317zm22.135-24.048c-4.037-3.353-11.039-.14-14.63 3.762-3.705 4.025-5.959 10.962-1.971 14.274 4.037 3.352 11.039.139 14.631-3.763 3.582-3.891 6.009-10.921 1.97-14.273zm7.368 52.165c1.708 4.828 9.461 5.406 14.633 3.755 5.16-1.646 10.986-6.555 9.277-11.384-1.707-4.829-9.461-5.406-14.632-3.755-5.16 1.646-10.986 6.555-9.278 11.384zm-77.387 42.499c4.909 1.653 10.6.293 14.043-3.765l23.754-28.14-14.433 3.934-23.364 27.971zm-8.558-35.963c-5.271 1.461-8.778 5.922-9.064 10.855l64.528-17.588 6.54-7.775-1.475-2.1-60.529 16.608zm-34.159 447.752c-6.535-5.427-7.033-16.626 1.175-25.542 8.283-8.999 20.019-9.896 26.494-4.518 7.591 6.303 5.861 17.797-1.066 25.419l-15.517 18.26 1.466 2.088 23.712-6.592c8.416-2.631 18.656-1.183 23.524 5.749.017.023.031.048.047.072 7.177-.178 14.689 3.626 19.147 9.972l2.332 3.322-6.994 4.431-2.333-3.321c-2.358-3.357-6.209-5.696-9.93-6.28-.548 7.668-7.355 13.865-15.243 16.382-11.93 3.807-22.542-1.037-25.281-8.782-1.037-2.933-.925-6.142.253-9.212l-8.516 2.361-40.558 48.045c-7.272 8.572-20.533 9.927-29.559 3.022l-3.25-2.487 21.681-25.956-33.503 9.131-1.172-3.817c-3.245-10.568 3.166-21.675 14.303-24.763l62.274-17.106 5.567-6.561c-3.437-.146-6.6-1.281-9.053-3.317zm22.135-24.049c-4.037-3.352-11.039-.139-14.63 3.762-3.705 4.026-5.959 10.963-1.971 14.274 4.037 3.353 11.039.14 14.631-3.762 3.582-3.892 6.009-10.921 1.97-14.274zm7.368 52.166c1.708 4.828 9.461 5.405 14.633 3.755 5.16-1.647 10.986-6.555 9.277-11.385-1.707-4.828-9.461-5.405-14.632-3.754-5.16 1.646-10.986 6.555-9.278 11.384zm-77.387 42.499c4.909 1.653 10.6.293 14.043-3.765l23.754-28.14-14.433 3.934-23.364 27.971zm-8.558-35.963c-5.27 1.461-8.778 5.922-9.064 10.855l64.528-17.588 6.54-7.776-1.475-2.099-60.529 16.608zm7.023 279.13c-6.535-5.43-7.033-16.63 1.175-25.54 8.282-9 20.018-9.9 26.494-4.52 7.59 6.3 5.861 17.8-1.066 25.42l-15.517 18.26 1.466 2.08 23.711-6.59c8.417-2.63 18.657-1.18 23.525 5.75.016.03.03.05.047.07 7.176-.17 14.689 3.63 19.146 9.98l2.333 3.32-6.995 4.43-2.332-3.32c-2.358-3.36-6.209-5.7-9.93-6.28-.548 7.67-7.355 13.86-15.243 16.38-11.93 3.81-22.542-1.04-25.281-8.78-1.038-2.93-.926-6.14.253-9.21l-8.517 2.36-40.557 48.04c-7.273 8.57-20.533 9.93-29.56 3.02l-3.25-2.48 21.682-25.96-33.503 9.13-1.172-3.81c-3.246-10.57 3.166-21.68 14.302-24.77l62.275-17.1 5.567-6.57c-3.438-.14-6.601-1.28-9.053-3.31zm22.135-24.05c-4.038-3.35-11.04-.14-14.631 3.76-3.704 4.03-5.959 10.96-1.971 14.28 4.038 3.35 11.04.13 14.631-3.77 3.583-3.89 6.01-10.92 1.971-14.27zm7.368 52.16c1.708 4.83 9.461 5.41 14.633 3.76 5.159-1.65 10.985-6.56 9.277-11.38-1.707-4.83-9.461-5.41-14.633-3.76-5.159 1.65-10.985 6.56-9.277 11.38zm-77.387 42.5c4.909 1.66 10.599.3 14.043-3.76l23.754-28.14-14.433 3.93-23.364 27.97zm-8.559-35.96c-5.27 1.46-8.777 5.92-9.064 10.86l64.529-17.59 6.54-7.78-1.475-2.1-60.53 16.61zM695.193 75.366c-6.535-5.427-7.033-16.626 1.175-25.542 8.283-8.999 20.019-9.896 26.495-4.518 7.59 6.303 5.861 17.797-1.067 25.419l-15.517 18.26 1.466 2.088 23.712-6.592c8.416-2.631 18.656-1.183 23.524 5.749.017.023.031.048.047.072 7.177-.178 14.689 3.626 19.147 9.972l2.332 3.322-6.994 4.431-2.333-3.321c-2.358-3.357-6.209-5.696-9.93-6.28-.548 7.668-7.355 13.865-15.243 16.382-11.93 3.807-22.542-1.037-25.281-8.782-1.037-2.933-.925-6.142.253-9.212l-8.516 2.36-40.557 48.046c-7.273 8.572-20.534 9.927-29.56 3.022l-3.25-2.487 21.681-25.956-33.502 9.131-1.173-3.817c-3.245-10.568 3.166-21.675 14.303-24.763l62.274-17.106 5.567-6.561c-3.437-.146-6.6-1.281-9.053-3.317zm22.135-24.049c-4.037-3.352-11.039-.139-14.63 3.763-3.705 4.025-5.959 10.962-1.971 14.273 4.038 3.353 11.04.14 14.631-3.762 3.582-3.892 6.009-10.92 1.97-14.274zm7.368 52.166c1.708 4.828 9.461 5.405 14.633 3.755 5.16-1.647 10.986-6.555 9.277-11.385-1.707-4.828-9.461-5.405-14.632-3.754-5.16 1.646-10.986 6.555-9.278 11.384zm-77.387 42.499c4.909 1.653 10.6.293 14.043-3.765l23.754-28.14-14.432 3.934-23.365 27.971zm-8.558-35.963c-5.27 1.461-8.778 5.922-9.064 10.855l64.528-17.588 6.54-7.776-1.475-2.1-60.529 16.609zM89.355 297.011c-6.535-5.426-7.033-16.625 1.175-25.542 8.283-8.998 20.019-9.895 26.495-4.518 7.59 6.303 5.86 17.798-1.067 25.419l-15.517 18.261 1.466 2.087 23.712-6.592c8.416-2.631 18.656-1.183 23.524 5.749.017.024.031.049.047.072 7.177-.178 14.689 3.626 19.147 9.973l2.332 3.321-6.994 4.432-2.333-3.322c-2.358-3.357-6.209-5.695-9.93-6.279-.548 7.668-7.355 13.864-15.243 16.381-11.93 3.807-22.542-1.037-25.281-8.781-1.037-2.933-.925-6.143.253-9.213l-8.516 2.361-40.557 48.046c-7.273 8.571-20.534 9.927-29.56 3.021l-3.25-2.486 21.681-25.957-33.503 9.132-1.172-3.817c-3.245-10.568 3.166-21.676 14.303-24.763L92.84 306.89l5.567-6.562c-3.437-.146-6.6-1.28-9.053-3.317zm22.135-24.048c-4.037-3.352-11.039-.139-14.63 3.762-3.705 4.025-5.96 10.963-1.971 14.274 4.038 3.352 11.039.139 14.631-3.762 3.582-3.892 6.009-10.921 1.97-14.274zm7.368 52.166c1.708 4.828 9.461 5.405 14.633 3.755 5.16-1.647 10.986-6.556 9.277-11.385-1.707-4.829-9.461-5.405-14.632-3.755-5.16 1.646-10.986 6.555-9.278 11.385zm-77.387 42.499c4.91 1.652 10.6.293 14.043-3.766l23.754-28.14-14.433 3.934-23.364 27.972zm-8.558-35.964c-5.27 1.461-8.778 5.922-9.064 10.856l64.528-17.589 6.54-7.775-1.475-2.1-60.53 16.608zm98.358 576.722c-6.535-5.426-7.033-16.625 1.175-25.542 8.283-8.998 20.019-9.895 26.495-4.518 7.59 6.303 5.861 17.798-1.066 25.419l-15.517 18.261 1.466 2.087 23.711-6.592c8.416-2.631 18.656-1.182 23.525 5.749.016.024.03.049.047.072 7.176-.178 14.688 3.626 19.146 9.973l2.333 3.322-6.995 4.431-2.333-3.322c-2.357-3.357-6.209-5.695-9.93-6.279-.547 7.668-7.355 13.864-15.243 16.381-11.929 3.807-22.541-1.037-25.281-8.781-1.037-2.933-.925-6.143.253-9.213l-8.516 2.361-40.557 48.046c-7.273 8.571-20.534 9.927-29.56 3.021l-3.25-2.486 21.681-25.957-33.502 9.132-1.172-3.817c-3.246-10.568 3.166-21.676 14.302-24.763l62.274-17.106 5.567-6.562c-3.437-.146-6.6-1.28-9.053-3.317zm22.136-24.048c-4.038-3.352-11.04-.139-14.631 3.762-3.705 4.025-5.959 10.963-1.971 14.274 4.038 3.353 11.04.139 14.631-3.762 3.582-3.892 6.009-10.921 1.971-14.274zm7.368 52.166c1.707 4.828 9.461 5.405 14.632 3.755 5.16-1.647 10.986-6.556 9.278-11.385-1.707-4.829-9.461-5.405-14.633-3.755-5.16 1.646-10.986 6.555-9.277 11.385zm-77.388 42.499c4.91 1.652 10.6.293 14.043-3.766l23.755-28.14-14.433 3.934-23.365 27.972zm-8.558-35.964c-5.27 1.461-8.777 5.922-9.064 10.856l64.528-17.589 6.54-7.775-1.474-2.1-60.53 16.608zm903.976-720.401c-8.363-2.209-13.91-12.103-10.568-23.514 3.373-11.515 13.547-17.143 21.834-14.953 9.713 2.567 13.389 13.642 10.609 23.358l-5.679 22.838 2.272 1.28 18.377-15.681c6.39-5.828 16.29-8.727 23.83-4.475.03.014.05.031.08.045 6.39-3.107 14.89-2.762 21.8 1.131l3.62 2.037-4.29 6.868-3.62-2.038c-3.65-2.058-8.19-2.585-11.81-1.584 3 7.139-.32 15.522-6.29 21.03-9.02 8.332-20.8 8.322-26.79 2.463-2.27-2.219-3.63-5.159-3.97-8.411l-6.6 5.626-14.702 59.977c-2.656 10.715-13.997 17.383-25.279 14.863l-4.063-.908 7.735-32.308-26.053 21.991-2.794-2.96c-7.737-8.197-7.012-20.846 1.624-28.203l48.367-40.996 2.033-8.202c-3.166 1.28-6.535 1.555-9.673.726zm9.012-30.774c-5.166-1.365-10.017 4.408-11.48 9.4-1.508 5.151-.383 12.332 4.721 13.68 5.167 1.366 10.018-4.407 11.48-9.4 1.459-4.98.447-12.315-4.721-13.68zm30.393 44.013c3.74 3.652 10.99.989 14.9-2.623 3.9-3.603 6.92-10.422 3.18-14.075-3.73-3.653-10.99-.989-14.9 2.623-3.9 3.603-6.92 10.422-3.18 14.075zm-50.438 70.099c5.179-.526 9.691-4.088 10.949-9.162l8.61-35.128-11.224 9.474-8.335 34.816zm-24.088-28.914c-4.087 3.481-5.219 8.944-3.231 13.51l50.179-42.357 2.358-9.696-2.286-1.288-47.02 39.831zM144.265 58.851c-6.535-5.426-7.033-16.625 1.175-25.542 8.283-8.999 20.019-9.895 26.495-4.518 7.59 6.303 5.861 17.798-1.067 25.419l-15.517 18.26 1.466 2.088 23.712-6.592c8.416-2.63 18.656-1.183 23.524 5.75.017.023.031.047.047.07 7.177-.177 14.689 3.627 19.147 9.974l2.332 3.321-6.994 4.431-2.333-3.321c-2.358-3.357-6.209-5.695-9.93-6.28-.548 7.669-7.355 13.865-15.243 16.382-11.93 3.807-22.542-1.037-25.281-8.781-1.037-2.933-.925-6.143.253-9.213l-8.516 2.36-40.557 48.046c-7.273 8.572-20.534 9.927-29.56 3.022l-3.25-2.486 21.681-25.957-33.502 9.131-1.173-3.816c-3.245-10.568 3.166-21.676 14.303-24.764L147.75 68.73l5.567-6.56c-3.437-.147-6.6-1.282-9.053-3.318zM166.4 34.803c-4.037-3.353-11.039-.14-14.63 3.762-3.705 4.025-5.959 10.963-1.971 14.274 4.038 3.352 11.039.139 14.631-3.762 3.582-3.892 6.009-10.921 1.97-14.274zm7.368 52.165c1.708 4.829 9.461 5.406 14.633 3.755 5.16-1.646 10.986-6.555 9.277-11.384-1.707-4.829-9.461-5.406-14.632-3.755-5.16 1.646-10.986 6.555-9.278 11.384zm-77.387 42.5c4.909 1.652 10.6.293 14.043-3.766l23.754-28.14-14.432 3.934-23.365 27.972zm-8.558-35.964c-5.27 1.46-8.778 5.922-9.064 10.855l64.528-17.588 6.54-7.775-1.475-2.1-60.53 16.608zm321.839 529.457c-6.535-5.427-7.033-16.626 1.175-25.542 8.282-8.999 20.019-9.896 26.494-4.519 7.59 6.303 5.861 17.798-1.066 25.42l-15.517 18.26 1.466 2.088 23.711-6.593c8.417-2.63 18.657-1.182 23.525 5.75.017.023.031.048.047.071 7.176-.178 14.689 3.626 19.146 9.973l2.333 3.322-6.994 4.431-2.333-3.321c-2.358-3.358-6.209-5.696-9.93-6.28-.548 7.668-7.355 13.865-15.243 16.381-11.93 3.808-22.542-1.036-25.281-8.781-1.038-2.933-.925-6.142.253-9.213l-8.517 2.361-40.557 48.046c-7.272 8.572-20.533 9.927-29.56 3.022l-3.25-2.487 21.682-25.957-33.503 9.132-1.172-3.817c-3.245-10.568 3.166-21.675 14.302-24.763l62.275-17.106 5.567-6.561c-3.437-.146-6.601-1.281-9.053-3.317zm22.135-24.049c-4.037-3.352-11.04-.139-14.631 3.762-3.704 4.025-5.959 10.963-1.97 14.274 4.037 3.353 11.039.139 14.63-3.762 3.583-3.892 6.01-10.921 1.971-14.274zm7.368 52.166c1.708 4.828 9.461 5.405 14.633 3.755 5.16-1.647 10.986-6.556 9.277-11.385-1.707-4.828-9.461-5.405-14.633-3.755-5.159 1.647-10.985 6.556-9.277 11.385zm-77.387 42.499c4.909 1.653 10.599.293 14.043-3.765l23.754-28.14-14.433 3.934-23.364 27.971zm-8.559-35.963c-5.27 1.46-8.777 5.922-9.064 10.855l64.529-17.588 6.54-7.776-1.475-2.1-60.53 16.609zM1273.57 45.813c-6.53-5.426-7.03-16.625 1.18-25.542 8.28-8.999 20.02-9.895 26.49-4.518 7.59 6.303 5.87 17.798-1.06 25.419l-15.52 18.26 1.47 2.088 23.71-6.592c8.42-2.63 18.66-1.183 23.52 5.75.02.023.03.047.05.07 7.18-.177 14.69 3.627 19.15 9.974l2.33 3.321-7 4.432-2.33-3.322c-2.36-3.357-6.21-5.695-9.93-6.28-.55 7.669-7.35 13.865-15.24 16.382-11.93 3.807-22.54-1.037-25.28-8.781-1.04-2.933-.93-6.143.25-9.213l-8.52 2.36-40.55 48.046c-7.28 8.572-20.54 9.927-29.56 3.022l-3.25-2.486 21.68-25.957-33.5 9.131-1.18-3.816c-3.24-10.568 3.17-21.676 14.31-24.764l62.27-17.106 5.57-6.56c-3.44-.147-6.6-1.282-9.06-3.318zm22.14-24.048c-4.04-3.353-11.04-.14-14.63 3.762-3.71 4.025-5.96 10.962-1.97 14.274 4.04 3.352 11.04.139 14.63-3.763 3.58-3.891 6.01-10.92 1.97-14.273zm7.37 52.165c1.71 4.829 9.46 5.406 14.63 3.755 5.16-1.646 10.99-6.555 9.28-11.384-1.71-4.829-9.46-5.406-14.63-3.755-5.16 1.646-10.99 6.555-9.28 11.384zm-77.39 42.5c4.91 1.652 10.6.293 14.04-3.766l23.76-28.14-14.43 3.934-23.37 27.972zm-8.56-35.964c-5.27 1.46-8.77 5.922-9.06 10.856l64.53-17.589 6.54-7.775-1.48-2.1-60.53 16.608zm82.27 457.313c6.53-5.426 7.03-16.625-1.18-25.542-8.28-8.998-20.02-9.895-26.49-4.518-7.59 6.303-5.86 17.798 1.06 25.419l15.52 18.261-1.47 2.087-23.71-6.592c-8.41-2.631-18.65-1.183-23.52 5.749-.02.024-.03.049-.05.072-7.18-.178-14.69 3.626-19.15 9.973l-2.33 3.321 7 4.432 2.33-3.322c2.36-3.357 6.21-5.695 9.93-6.279.55 7.668 7.35 13.864 15.24 16.381 11.93 3.807 22.54-1.037 25.28-8.781 1.04-2.933.93-6.143-.25-9.213l8.52 2.361 40.55 48.046c7.28 8.571 20.54 9.927 29.56 3.021l3.25-2.486-21.68-25.957 33.5 9.132 1.18-3.817c3.24-10.568-3.17-21.676-14.31-24.763l-62.27-17.106-5.57-6.562c3.44-.146 6.6-1.28 9.06-3.317zm-22.14-24.048c4.04-3.352 11.04-.139 14.63 3.762 3.71 4.025 5.96 10.963 1.97 14.274-4.04 3.352-11.04.139-14.63-3.762-3.58-3.892-6.01-10.921-1.97-14.274zm-7.37 52.166c-1.71 4.828-9.46 5.405-14.63 3.755-5.16-1.647-10.99-6.556-9.28-11.385 1.71-4.829 9.46-5.405 14.64-3.755 5.15 1.646 10.98 6.555 9.27 11.385zm77.39 42.499c-4.91 1.652-10.6.293-14.04-3.766l-23.76-28.14 14.44 3.934 23.36 27.972zm8.56-35.964c5.27 1.461 8.78 5.922 9.06 10.856l-64.53-17.589-6.54-7.775 1.48-2.1 60.53 16.608zM170.084 1056.61c6.535-5.43 7.033-16.63-1.175-25.54-8.282-9-20.019-9.9-26.494-4.52-7.59 6.3-5.861 17.8 1.066 25.42l15.517 18.26-1.466 2.09-23.711-6.6c-8.417-2.63-18.657-1.18-23.525 5.75a.497.497 0 01-.047.07c-7.177-.17-14.689 3.63-19.146 9.98l-2.333 3.32 6.994 4.43 2.333-3.32c2.358-3.36 6.209-5.7 9.93-6.28.548 7.67 7.355 13.86 15.243 16.38 11.93 3.81 22.542-1.04 25.281-8.78 1.037-2.93.925-6.14-.253-9.21l8.517 2.36 40.557 48.04c7.272 8.57 20.533 9.93 29.56 3.02l3.25-2.48-21.682-25.96 33.503 9.13 1.172-3.81c3.245-10.57-3.166-21.68-14.303-24.77l-62.274-17.1-5.567-6.56c3.437-.15 6.601-1.29 9.053-3.32zm-22.135-24.05c4.037-3.35 11.039-.14 14.63 3.76 3.705 4.03 5.959 10.96 1.971 14.28-4.037 3.35-11.039.14-14.631-3.77-3.582-3.89-6.009-10.92-1.97-14.27zm-7.368 52.17c-1.708 4.82-9.461 5.4-14.633 3.75-5.16-1.65-10.986-6.55-9.277-11.38 1.707-4.83 9.461-5.41 14.633-3.76 5.159 1.65 10.985 6.56 9.277 11.39zm77.387 42.49c-4.909 1.66-10.6.3-14.043-3.76l-23.754-28.14 14.433 3.93 23.364 27.97zm8.559-35.96c5.27 1.46 8.777 5.92 9.063 10.86l-64.528-17.59-6.54-7.78 1.475-2.1 60.53 16.61zm730.259-974.997c-6.884 5.022-8.128 16.169-.531 25.561 7.666 9.479 19.319 11.08 26.14 6.103 7.995-5.834 7.036-17.41.631-25.432l-14.268-19.158 1.602-1.995 23.224 8.005c8.226 3.132 18.536 2.303 23.866-4.322a.28.28 0 01.05-.069c7.15.609 14.9-2.735 19.77-8.801l2.55-3.175-6.69-4.843-2.55 3.175c-2.57 3.208-6.57 5.31-10.32 5.67-.04-7.686-6.42-14.28-14.12-17.266-11.656-4.517-22.57-.321-25.82 7.243-1.231 2.864-1.333 6.075-.362 9.21l-8.342-2.87-37.272-50.388c-6.686-8.992-19.83-11.142-29.299-4.794l-3.409 2.286 19.907 27.21-32.826-11.13-1.425 3.74c-3.943 10.35 1.714 21.822 12.623 25.573l61.008 20.818 5.119 6.883c-3.44-.061-6.673.881-9.256 2.766zm20.487 25.331c-4.253 3.103-11.027-.525-14.351-4.634-3.429-4.24-5.216-11.3-1.015-14.364 4.253-3.103 11.027.525 14.351 4.634 3.316 4.1 5.269 11.261 1.015 14.364zm10.832-51.618c2.026-4.715 9.802-4.825 14.855-2.867 5.04 1.954 10.52 7.203 8.5 11.92-2.03 4.716-9.8 4.825-14.856 2.867-5.039-1.953-10.526-7.203-8.499-11.92zm-74.398-47.069c5.009-1.353 10.598.346 13.764 4.603L949.3 77.023l-14.141-4.795-21.452-29.32zm-10.94 35.377c-5.162-1.775-8.365-6.438-8.322-11.379l63.227 21.435 6.008 8.153-1.612 2.007-59.301-20.216zm447.883 923.646c6.53-5.425 7.03-16.624-1.18-25.541-8.28-8.999-20.02-9.895-26.49-4.518-7.59 6.303-5.87 17.798 1.06 25.419l15.52 18.26-1.47 2.09-23.71-6.59c-8.42-2.63-18.66-1.19-23.52 5.75-.02.02-.03.04-.05.07-7.18-.18-14.69 3.62-19.15 9.97l-2.33 3.32 7 4.43 2.33-3.32c2.36-3.36 6.21-5.69 9.93-6.28.55 7.67 7.35 13.87 15.24 16.38 11.93 3.81 22.54-1.03 25.28-8.78 1.04-2.93.93-6.14-.25-9.21l8.52 2.36 40.55 48.05c7.28 8.57 20.54 9.92 29.56 3.02l3.25-2.49-21.68-25.96 33.5 9.14 1.18-3.82c3.24-10.57-3.17-21.68-14.31-24.76l-62.27-17.11-5.57-6.56c3.44-.15 6.6-1.28 9.06-3.32zm-22.14-24.047c4.04-3.353 11.04-.139 14.63 3.762 3.71 4.025 5.96 10.962 1.97 14.274-4.04 3.352-11.04.139-14.63-3.763-3.58-3.891-6.01-10.921-1.97-14.273zm-7.37 52.167c-1.71 4.83-9.46 5.4-14.63 3.75-5.16-1.64-10.99-6.55-9.28-11.38 1.71-4.83 9.46-5.41 14.63-3.76 5.16 1.65 10.99 6.56 9.28 11.39zm77.39 42.5c-4.91 1.65-10.6.29-14.04-3.77l-23.76-28.14 14.43 3.94 23.37 27.97zm8.56-35.97c5.27 1.46 8.77 5.93 9.06 10.86l-64.53-17.59-6.54-7.77 1.48-2.1 60.53 16.6zm-516.776 28.29c6.535-5.43 7.033-16.63-1.175-25.55-8.282-9-20.018-9.89-26.494-4.52-7.59 6.31-5.861 17.8 1.066 25.42l15.517 18.26-1.466 2.09-23.711-6.59c-8.417-2.63-18.657-1.18-23.525 5.75-.016.02-.03.05-.047.07-7.176-.18-14.689 3.63-19.146 9.97L809 1093.1l6.995 4.43 2.332-3.32c2.358-3.36 6.209-5.7 9.93-6.28.548 7.66 7.355 13.86 15.243 16.38 11.93 3.8 22.542-1.04 25.281-8.78 1.038-2.94.926-6.15-.253-9.22l8.517 2.36 40.557 48.05c7.273 8.57 20.533 9.93 29.56 3.02l3.25-2.49-21.682-25.95 33.503 9.13 1.172-3.82c3.246-10.57-3.166-21.67-14.302-24.76l-62.275-17.11-5.567-6.56c3.437-.14 6.601-1.28 9.053-3.31zm-22.135-24.05c4.038-3.36 11.04-.14 14.631 3.76 3.704 4.02 5.959 10.96 1.971 14.27-4.038 3.36-11.04.14-14.631-3.76-3.583-3.89-6.01-10.92-1.971-14.27zm-7.368 52.16c-1.708 4.83-9.461 5.41-14.633 3.76-5.159-1.65-10.985-6.56-9.277-11.39 1.707-4.83 9.461-5.4 14.633-3.75 5.159 1.64 10.985 6.55 9.277 11.38zm77.387 42.5c-4.909 1.65-10.599.29-14.043-3.76l-23.754-28.14 14.433 3.93 23.364 27.97zm8.559-35.96c5.27 1.46 8.777 5.92 9.064 10.85l-64.529-17.58-6.54-7.78 1.475-2.1 60.53 16.61zm-797.72-608.678c6.535-5.426 7.032-16.625-1.175-25.541-8.283-8.999-20.019-9.896-26.495-4.519-7.59 6.303-5.861 17.798 1.066 25.419l15.517 18.261-1.466 2.087-23.711-6.592c-8.417-2.63-18.657-1.182-23.525 5.75-.016.023-.03.048-.047.071-7.176-.178-14.689 3.626-19.146 9.973l-2.333 3.322 6.995 4.431 2.333-3.322c2.357-3.357 6.209-5.695 9.93-6.279.547 7.668 7.355 13.864 15.243 16.381 11.929 3.807 22.541-1.036 25.28-8.781 1.038-2.933.926-6.143-.253-9.213l8.517 2.361 40.557 48.046c7.273 8.571 20.533 9.927 29.56 3.021l3.25-2.486-21.682-25.957 33.503 9.132 1.172-3.817c3.246-10.568-3.166-21.676-14.302-24.763l-62.275-17.106-5.566-6.561c3.437-.146 6.6-1.281 9.053-3.318zm-22.136-24.048c4.038-3.352 11.04-.139 14.631 3.762 3.705 4.025 5.959 10.963 1.971 14.274-4.038 3.353-11.04.139-14.631-3.762-3.583-3.892-6.009-10.921-1.971-14.274zm-7.368 52.166c-1.708 4.828-9.461 5.405-14.633 3.755-5.16-1.647-10.985-6.556-9.277-11.385 1.707-4.828 9.461-5.405 14.633-3.755 5.16 1.646 10.985 6.556 9.277 11.385zm77.387 42.499c-4.909 1.653-10.599.293-14.043-3.765l-23.754-28.141 14.433 3.934 23.364 27.972zm8.559-35.964c5.27 1.461 8.777 5.923 9.064 10.856l-64.529-17.589-6.54-7.775 1.475-2.1 60.53 16.608zm813.881 301.727c6.53-5.426 7.03-16.625-1.18-25.542-8.28-8.998-20.018-9.895-26.494-4.518-7.59 6.303-5.861 17.798 1.066 25.419l15.518 18.261-1.47 2.087-23.708-6.592c-8.416-2.631-18.656-1.183-23.524 5.749-.017.024-.031.049-.047.072-7.177-.178-14.689 3.626-19.147 9.973l-2.333 3.321 6.995 4.432 2.333-3.322c2.358-3.357 6.209-5.695 9.93-6.279.547 7.668 7.355 13.864 15.243 16.381 11.929 3.807 22.541-1.037 25.281-8.781 1.037-2.933.925-6.143-.253-9.213l8.52 2.361 40.55 48.046c7.28 8.571 20.54 9.927 29.56 3.021l3.25-2.486-21.68-25.957 33.5 9.132 1.18-3.817c3.24-10.568-3.17-21.676-14.31-24.763l-62.27-17.107-5.57-6.561c3.44-.146 6.6-1.281 9.06-3.317zm-22.14-24.048c4.04-3.352 11.04-.139 14.63 3.762 3.71 4.025 5.96 10.963 1.97 14.274-4.04 3.352-11.04.139-14.629-3.762-3.582-3.892-6.009-10.921-1.971-14.274zm-7.368 52.166c-1.707 4.828-9.461 5.405-14.632 3.754-5.16-1.646-10.986-6.555-9.278-11.384 1.708-4.829 9.461-5.405 14.633-3.755 5.16 1.646 10.986 6.555 9.277 11.385zm77.388 42.499c-4.91 1.652-10.6.293-14.04-3.766l-23.76-28.14 14.44 3.934 23.36 27.972zm8.56-35.964c5.27 1.461 8.78 5.922 9.06 10.856l-64.53-17.589-6.54-7.775 1.48-2.1 60.53 16.608zm-586.323-36.391c6.535-5.426 7.033-16.626-1.175-25.542-8.283-8.999-20.019-9.896-26.495-4.518-7.59 6.303-5.861 17.798 1.067 25.419l15.517 18.26-1.466 2.088-23.712-6.592c-8.416-2.631-18.656-1.183-23.524 5.749-.017.023-.031.048-.047.072-7.177-.178-14.689 3.626-19.147 9.972l-2.332 3.322 6.994 4.431 2.333-3.321c2.358-3.357 6.209-5.696 9.93-6.28.548 7.669 7.355 13.865 15.243 16.382 11.929 3.807 22.542-1.037 25.281-8.781 1.037-2.934.925-6.143-.253-9.213l8.516 2.361 40.557 48.045c7.273 8.572 20.534 9.927 29.56 3.022l3.25-2.486-21.681-25.957 33.502 9.131 1.173-3.817c3.245-10.568-3.166-21.675-14.303-24.763l-62.274-17.106-5.567-6.561c3.437-.146 6.6-1.281 9.053-3.317zm-22.135-24.049c4.037-3.352 11.039-.139 14.63 3.763 3.705 4.025 5.959 10.962 1.971 14.274-4.038 3.352-11.04.139-14.631-3.763-3.582-3.892-6.009-10.921-1.97-14.274zm-7.368 52.166c-1.708 4.828-9.462 5.405-14.633 3.755-5.16-1.647-10.986-6.555-9.278-11.384 1.708-4.829 9.462-5.406 14.633-3.755 5.16 1.646 10.986 6.555 9.278 11.384zm77.387 42.499c-4.909 1.653-10.6.293-14.043-3.765l-23.754-28.14 14.432 3.934 23.365 27.971zm8.558-35.963c5.27 1.461 8.778 5.922 9.064 10.855l-64.528-17.588-6.54-7.776 1.474-2.099 60.53 16.608zM340.305 151.855c6.535-5.426 7.033-16.625-1.175-25.542-8.282-8.998-20.019-9.895-26.494-4.518-7.59 6.303-5.861 17.798 1.066 25.419l15.517 18.261-1.466 2.087-23.711-6.592c-8.417-2.631-18.657-1.183-23.525 5.749-.017.024-.031.049-.047.072-7.177-.178-14.689 3.626-19.146 9.973l-2.333 3.321 6.994 4.432 2.333-3.322c2.358-3.357 6.209-5.695 9.93-6.279.548 7.668 7.355 13.864 15.243 16.381 11.93 3.807 22.542-1.037 25.281-8.781 1.037-2.933.925-6.143-.253-9.213l8.517 2.361 40.557 48.046c7.272 8.571 20.533 9.927 29.56 3.021l3.25-2.486-21.682-25.957 33.503 9.132 1.172-3.817c3.245-10.568-3.166-21.676-14.303-24.763l-62.274-17.106-5.567-6.562c3.437-.146 6.601-1.28 9.053-3.317zm-22.135-24.048c4.037-3.352 11.039-.139 14.63 3.762 3.705 4.025 5.959 10.963 1.971 14.274-4.037 3.352-11.039.139-14.631-3.762-3.582-3.892-6.009-10.921-1.97-14.274zm-7.368 52.166c-1.708 4.828-9.461 5.405-14.633 3.755-5.16-1.647-10.986-6.556-9.277-11.385 1.707-4.829 9.461-5.405 14.633-3.755 5.159 1.646 10.985 6.555 9.277 11.385zm77.387 42.499c-4.909 1.652-10.6.293-14.043-3.766l-23.754-28.14 14.433 3.934 23.364 27.972zm8.559-35.964c5.27 1.461 8.777 5.922 9.063 10.856l-64.528-17.589-6.54-7.775 1.475-2.1 60.53 16.608zM893.063 623.83c6.535-5.426 7.033-16.626-1.175-25.542-8.283-8.999-20.019-9.896-26.494-4.518-7.59 6.303-5.861 17.798 1.066 25.419l15.517 18.26-1.466 2.088-23.711-6.592c-8.417-2.631-18.657-1.183-23.525 5.749-.017.023-.031.048-.047.072-7.177-.178-14.689 3.626-19.146 9.972l-2.333 3.322 6.994 4.431 2.333-3.321c2.358-3.357 6.209-5.696 9.93-6.28.548 7.669 7.355 13.865 15.243 16.382 11.93 3.807 22.542-1.037 25.281-8.781 1.037-2.934.925-6.143-.253-9.213l8.517 2.361 40.557 48.045c7.272 8.572 20.533 9.927 29.56 3.022l3.25-2.486-21.682-25.957 33.503 9.131 1.172-3.817c3.245-10.568-3.166-21.675-14.303-24.763l-62.274-17.106-5.567-6.561c3.437-.146 6.601-1.281 9.053-3.317zm-22.135-24.049c4.037-3.352 11.039-.139 14.63 3.763 3.705 4.025 5.959 10.962 1.971 14.274-4.037 3.352-11.039.139-14.631-3.763-3.582-3.892-6.009-10.921-1.97-14.274zm-7.368 52.166c-1.708 4.828-9.461 5.405-14.633 3.755-5.16-1.647-10.986-6.555-9.277-11.384 1.707-4.829 9.461-5.406 14.633-3.755 5.159 1.646 10.985 6.555 9.277 11.384zm77.387 42.499c-4.909 1.653-10.6.293-14.043-3.765l-23.754-28.14 14.433 3.934 23.364 27.971zm8.558-35.963c5.271 1.461 8.778 5.922 9.064 10.855l-64.528-17.588-6.54-7.776 1.475-2.099 60.529 16.608zM1316.78 298.75c6.54-5.426 7.04-16.626-1.17-25.542-8.28-8.999-20.02-9.896-26.5-4.518-7.59 6.303-5.86 17.797 1.07 25.419l15.52 18.26-1.47 2.088-23.71-6.592c-8.42-2.631-18.66-1.183-23.53 5.749-.01.023-.03.048-.04.072-7.18-.178-14.69 3.626-19.15 9.972l-2.33 3.322 6.99 4.431 2.34-3.321c2.35-3.357 6.2-5.696 9.93-6.28.54 7.669 7.35 13.865 15.24 16.382 11.93 3.807 22.54-1.037 25.28-8.781 1.04-2.934.92-6.143-.25-9.213l8.51 2.361 40.56 48.045c7.27 8.572 20.53 9.927 29.56 3.022l3.25-2.486-21.68-25.957 33.5 9.131 1.17-3.817c3.25-10.568-3.16-21.675-14.3-24.763l-62.27-17.106-5.57-6.561c3.44-.146 6.6-1.281 9.05-3.317zm-22.13-24.049c4.03-3.352 11.04-.139 14.63 3.763 3.7 4.025 5.96 10.962 1.97 14.274-4.04 3.352-11.04.139-14.63-3.763-3.58-3.892-6.01-10.921-1.97-14.274zm-7.37 52.166c-1.71 4.828-9.46 5.405-14.63 3.755-5.16-1.647-10.99-6.555-9.28-11.384 1.71-4.829 9.46-5.406 14.63-3.755 5.16 1.646 10.99 6.555 9.28 11.384zm77.39 42.499c-4.91 1.653-10.6.293-14.05-3.765l-23.75-28.14 14.43 3.934 23.37 27.971zm8.56-35.963c5.27 1.461 8.77 5.922 9.06 10.855l-64.53-17.588-6.54-7.776 1.48-2.099 60.53 16.608zM640.478 417.83c6.536-5.426 7.033-16.626-1.175-25.542-8.282-8.999-20.018-9.896-26.494-4.518-7.59 6.303-5.861 17.798 1.066 25.419l15.517 18.26-1.466 2.088-23.711-6.592c-8.417-2.631-18.657-1.183-23.525 5.749-.016.023-.03.048-.047.072-7.176-.178-14.689 3.626-19.146 9.972l-2.333 3.322 6.995 4.431 2.332-3.321c2.358-3.357 6.209-5.696 9.93-6.28.548 7.669 7.356 13.865 15.244 16.382 11.929 3.807 22.541-1.037 25.28-8.781 1.038-2.934.926-6.143-.253-9.213l8.517 2.361 40.557 48.045c7.273 8.572 20.533 9.927 29.56 3.022l3.25-2.486-21.682-25.957 33.503 9.131 1.172-3.817c3.246-10.568-3.166-21.675-14.302-24.763l-62.275-17.106-5.567-6.561c3.438-.146 6.601-1.281 9.053-3.317zm-22.135-24.049c4.038-3.352 11.04-.139 14.631 3.763 3.705 4.025 5.959 10.962 1.971 14.274-4.038 3.352-11.04.139-14.631-3.763-3.583-3.892-6.009-10.921-1.971-14.274zm-7.368 52.166c-1.708 4.828-9.461 5.405-14.633 3.755-5.159-1.647-10.985-6.555-9.277-11.384 1.707-4.829 9.461-5.406 14.633-3.755 5.159 1.646 10.985 6.555 9.277 11.384zm77.387 42.499c-4.909 1.653-10.599.293-14.043-3.765l-23.754-28.14 14.433 3.934 23.364 27.971zm8.559-35.963c5.27 1.461 8.777 5.922 9.064 10.855l-64.529-17.588-6.54-7.776 1.475-2.099 60.53 16.608zM319.256 344.817c6.535-5.426 7.033-16.625-1.175-25.542-8.282-8.998-20.019-9.895-26.494-4.518-7.59 6.303-5.861 17.798 1.066 25.419l15.517 18.261-1.466 2.087-23.711-6.592c-8.417-2.631-18.657-1.183-23.525 5.749-.017.024-.031.049-.047.072-7.177-.178-14.689 3.626-19.146 9.973l-2.333 3.321 6.994 4.432 2.333-3.322c2.358-3.357 6.209-5.695 9.93-6.279.548 7.668 7.355 13.864 15.243 16.381 11.93 3.807 22.542-1.037 25.281-8.781 1.038-2.933.925-6.143-.253-9.213l8.517 2.361 40.557 48.046c7.272 8.571 20.533 9.927 29.56 3.021l3.25-2.486-21.682-25.957 33.503 9.132 1.172-3.817c3.245-10.568-3.166-21.676-14.303-24.763l-62.274-17.107-5.567-6.561c3.437-.146 6.601-1.28 9.053-3.317zm-22.135-24.048c4.037-3.352 11.039-.139 14.631 3.762 3.704 4.025 5.958 10.963 1.97 14.274-4.037 3.352-11.039.139-14.631-3.762-3.582-3.892-6.009-10.921-1.97-14.274zm-7.368 52.166c-1.708 4.828-9.461 5.405-14.633 3.754-5.16-1.646-10.986-6.555-9.277-11.384 1.707-4.829 9.461-5.405 14.633-3.755 5.159 1.646 10.985 6.555 9.277 11.385zm77.387 42.499c-4.909 1.652-10.6.293-14.043-3.766l-23.754-28.14 14.433 3.934 23.364 27.972zm8.559-35.964c5.27 1.461 8.777 5.922 9.063 10.856l-64.528-17.589-6.54-7.775 1.475-2.1 60.53 16.608zm85.107-140.509c-5.951 1.844-9.01 8.442-6.818 14.708l35.956 102.781c2.923 8.355 11.757 13.151 19.692 10.692 7.936-2.458 12.014-11.256 9.091-19.611l-.116-.331c-.638-1.841-1.434-4.131-3.609-6.6-3.329-3.781-11.496-13.778-15.397-24.931-2.251-6.434.79-13.401 6.641-15.213l3.598-1.115-2.65-7.576-10.794 3.344c-1.984.615-4.192-.584-4.923-2.673l-1.325-3.788 14.391-4.459-2.65-7.576-14.391 4.459-2.651-7.576 14.392-4.459-2.651-7.576-14.391 4.459-2.65-7.576 14.391-4.459-2.65-7.576-14.392 4.459-1.325-3.788c-.73-2.088.289-4.288 2.273-4.903l10.793-3.344-2.65-7.576-25.185 7.804zm7.574 10.249l15.902 45.456c1.433 4.099 4.765 7.055 8.563 8.094-2.042 4.729-2.198 10.102-.436 15.139 4.404 12.588 13.405 23.627 17.071 27.789 1.051 1.193 1.42 2.254 1.929 3.722l.122.351c1.462 4.177-.577 8.576-4.545 9.805-3.968 1.23-8.385-1.168-9.846-5.346l-35.956-102.781c-.731-2.088.289-4.288 2.273-4.902l4.215-1.309c.016 1.309.243 2.654.708 3.982zm865.9 633.926c4.47 4.528 4.3 11.869-.39 16.364l-76.9 73.722c-6.25 5.993-16.19 5.956-22.15-.082-5.97-6.038-5.73-15.825.52-21.818l.25-.238c1.37-1.323 3.08-2.969 6.09-4.102 4.61-1.737 16.23-6.639 24.57-14.638 4.82-4.615 5.17-12.275.77-16.726l-2.7-2.738 5.66-5.434 8.12 8.212c1.49 1.51 3.97 1.519 5.53.021l2.84-2.717-10.82-10.95 5.67-5.434 10.82 10.95 5.66-5.434-10.81-10.95 5.67-5.435 10.81 10.951 5.67-5.435-10.82-10.95 5.67-5.434 10.82 10.95 2.83-2.717c1.56-1.498 1.62-3.945.13-5.454l-8.11-8.213 5.67-5.434c3.85 3.9 15.07 15.255 18.93 19.163zm-11.21 5.413l-34.01 32.605a12.031 12.031 0 01-11.14 3.02 20.227 20.227 0 01-6.24 13.645c-9.42 9.029-22.24 14.449-27.31 16.361-1.46.547-2.25 1.31-3.34 2.365l-.26.252c-3.13 2.996-3.24 7.89-.26 10.909 2.98 3.019 7.95 3.038 11.07.041l76.9-73.723c1.56-1.498 1.62-3.945.13-5.454l-3.17-3.21a11.998 11.998 0 01-2.37 3.189zM601.367 517.717c5.952 1.844 9.011 8.442 6.818 14.708L572.23 635.206c-2.923 8.355-11.757 13.151-19.692 10.692-7.936-2.458-12.014-11.256-9.091-19.611l.115-.331c.639-1.841 1.434-4.131 3.609-6.6 3.33-3.781 11.496-13.778 15.398-24.931 2.251-6.434-.79-13.401-6.641-15.213l-3.598-1.115 2.65-7.576 10.794 3.344c1.984.615 4.192-.584 4.923-2.673l1.325-3.788-14.391-4.459 2.65-7.576 14.391 4.459 2.65-7.576-14.391-4.459 2.65-7.576 14.392 4.459 2.65-7.576-14.391-4.459 2.65-7.576 14.391 4.459 1.326-3.788c.73-2.088-.289-4.288-2.273-4.903l-10.794-3.344 2.651-7.576 25.184 7.804zm-7.573 10.249l-15.902 45.456c-1.434 4.099-4.765 7.055-8.563 8.094 2.042 4.729 2.198 10.102.436 15.139-4.404 12.588-13.405 23.627-17.071 27.789-1.051 1.193-1.42 2.254-1.929 3.722l-.122.351c-1.462 4.177.577 8.576 4.545 9.805 3.968 1.23 8.385-1.168 9.846-5.346l35.956-102.78c.731-2.089-.289-4.289-2.273-4.903l-4.216-1.309a12.477 12.477 0 01-.707 3.982zM477.786 140.977c5.951-1.844 9.01-8.443 6.818-14.709l-35.956-102.78c-2.923-8.355-11.757-13.152-19.692-10.693-7.936 2.459-12.014 11.256-9.091 19.611l.116.332c.638 1.84 1.434 4.13 3.609 6.6 3.329 3.78 11.496 13.777 15.397 24.93 2.251 6.434-.79 13.4-6.641 15.214l-3.598 1.115 2.65 7.576 10.794-3.345c1.984-.615 4.192.585 4.923 2.673l1.325 3.788-14.391 4.46 2.65 7.576 14.391-4.46 2.651 7.576-14.392 4.46 2.651 7.575 14.391-4.459 2.65 7.576-14.391 4.459 2.65 7.576 14.392-4.459 1.325 3.788c.73 2.089-.289 4.288-2.273 4.903l-10.793 3.344 2.65 7.576 25.185-7.803zm-7.574-10.249L454.31 85.272c-1.433-4.1-4.765-7.055-8.563-8.094 2.042-4.73 2.198-10.102.436-15.14-4.404-12.587-13.405-23.626-17.071-27.788-1.051-1.193-1.42-2.254-1.929-3.723l-.122-.35c-1.462-4.178.577-8.577 4.545-9.806 3.968-1.23 8.385 1.169 9.846 5.346l35.956 102.781c.731 2.089-.289 4.288-2.273 4.903l-4.215 1.309a12.496 12.496 0 00-.708-3.982zm364.393 228.355c5.951 1.844 9.01 8.442 6.818 14.708l-35.956 102.781c-2.923 8.354-11.757 13.151-19.692 10.692-7.935-2.459-12.014-11.256-9.091-19.611l.116-.331c.638-1.841 1.434-4.131 3.609-6.601 3.329-3.78 11.496-13.777 15.397-24.93 2.251-6.434-.79-13.401-6.641-15.214l-3.598-1.114 2.65-7.576 10.794 3.344c1.984.615 4.192-.584 4.923-2.673l1.325-3.788-14.391-4.459 2.65-7.576 14.391 4.459 2.651-7.576-14.392-4.459 2.651-7.576 14.391 4.459 2.65-7.576-14.391-4.459 2.65-7.576 14.392 4.459 1.325-3.788c.73-2.089-.289-4.288-2.273-4.903l-10.793-3.344 2.65-7.576 25.185 7.804zm-7.574 10.249l-15.901 45.455c-1.434 4.099-4.766 7.056-8.564 8.095 2.042 4.728 2.198 10.102.436 15.138-4.404 12.589-13.405 23.628-17.071 27.789-1.051 1.193-1.419 2.254-1.929 3.723l-.122.351c-1.462 4.177.578 8.576 4.545 9.805 3.968 1.23 8.385-1.169 9.846-5.346l35.956-102.781c.731-2.088-.289-4.288-2.273-4.902l-4.215-1.31a12.507 12.507 0 01-.708 3.983z" fill="#FFEBCC"/><path d="M98.889 815.778c5.952 1.845 9.01 8.443 6.818 14.709l-35.956 102.78c-2.923 8.355-11.757 13.152-19.692 10.693-7.935-2.459-12.013-11.256-9.09-19.611l.115-.332c.639-1.84 1.434-4.131 3.609-6.6 3.33-3.78 11.496-13.777 15.398-24.93 2.25-6.434-.79-13.401-6.642-15.214l-3.597-1.115 2.65-7.575 10.793 3.344c1.984.615 4.192-.585 4.923-2.673l1.325-3.788-14.39-4.459 2.65-7.576 14.39 4.459 2.651-7.576-14.391-4.459 2.65-7.576 14.391 4.459 2.65-7.576-14.39-4.459 2.65-7.576 14.39 4.459 1.326-3.788c.73-2.089-.289-4.288-2.273-4.903l-10.793-3.344 2.65-7.576 25.185 7.803zm-7.573 10.25l-15.902 45.455c-1.434 4.099-4.765 7.055-8.564 8.095 2.042 4.728 2.198 10.102.436 15.138-4.404 12.589-13.405 23.627-17.07 27.789-1.052 1.193-1.42 2.254-1.93 3.723l-.122.351c-1.461 4.177.578 8.576 4.545 9.805 3.968 1.23 8.385-1.169 9.846-5.346l35.956-102.781c.731-2.088-.288-4.288-2.272-4.903l-4.216-1.309a12.503 12.503 0 01-.707 3.983zm260.277 66.726c5.951 1.844 9.01 8.442 6.818 14.708l-35.956 102.778c-2.923 8.36-11.757 13.15-19.692 10.7-7.935-2.46-12.013-11.26-9.091-19.62l.116-.33c.638-1.838 1.434-4.128 3.609-6.597 3.33-3.781 11.496-13.778 15.397-24.931 2.251-6.434-.79-13.401-6.641-15.214l-3.598-1.114 2.651-7.576 10.793 3.344c1.984.615 4.192-.584 4.923-2.673l1.325-3.788-14.391-4.459 2.65-7.576 14.392 4.459 2.65-7.576-14.391-4.459 2.65-7.576 14.391 4.459 2.651-7.576-14.392-4.459 2.651-7.576 14.391 4.459 1.325-3.788c.731-2.089-.289-4.288-2.273-4.903l-10.793-3.344 2.65-7.576 25.185 7.804zm-7.573 10.249l-15.902 45.456c-1.434 4.098-4.765 7.055-8.564 8.094 2.042 4.728 2.198 10.102.436 15.139-4.404 12.588-13.405 23.627-17.071 27.788-1.051 1.19-1.419 2.25-1.929 3.72l-.122.35c-1.461 4.18.578 8.58 4.545 9.81 3.968 1.23 8.385-1.17 9.846-5.35l35.956-102.778c.731-2.088-.289-4.288-2.272-4.902l-4.216-1.309a12.532 12.532 0 01-.707 3.982zm803.02-699.804c5.95 1.844 9.01 8.443 6.82 14.709l-35.96 102.78c-2.92 8.355-11.75 13.152-19.69 10.693-7.94-2.459-12.01-11.256-9.09-19.611l.11-.332c.64-1.84 1.44-4.131 3.61-6.6 3.33-3.781 11.5-13.778 15.4-24.93 2.25-6.434-.79-13.401-6.64-15.214l-3.6-1.115 2.65-7.576 10.8 3.345c1.98.614 4.19-.585 4.92-2.673l1.32-3.788-14.39-4.46 2.65-7.576 14.39 4.46 2.66-7.576-14.4-4.46 2.65-7.576 14.4 4.46 2.65-7.576-14.4-4.46 2.65-7.576 14.4 4.46 1.32-3.788c.73-2.089-.29-4.288-2.27-4.903l-10.8-3.344 2.66-7.576c5.12 1.588 20.04 6.212 25.18 7.803zm-7.57 10.249l-15.91 45.456c-1.43 4.099-4.76 7.055-8.56 8.094 2.04 4.729 2.2 10.102.44 15.139-4.41 12.588-13.41 23.627-17.07 27.789-1.05 1.193-1.42 2.254-1.93 3.722l-.12.351c-1.47 4.178.57 8.577 4.54 9.806 3.97 1.229 8.39-1.169 9.85-5.346l35.95-102.781c.73-2.089-.29-4.288-2.27-4.903l-4.22-1.309c-.01 1.31-.24 2.655-.7 3.982zm-105.14 433.56c-5.95 1.844-9.01 8.442-6.82 14.708l35.96 102.781c2.92 8.355 11.75 13.152 19.69 10.693 7.93-2.459 12.01-11.257 9.09-19.611l-.12-.332c-.63-1.841-1.43-4.131-3.61-6.6-3.32-3.781-11.49-13.778-15.39-24.931-2.25-6.433.79-13.4 6.64-15.213l3.6-1.115-2.65-7.576-10.8 3.345c-1.98.614-4.19-.585-4.92-2.674l-1.33-3.788 14.4-4.459-2.65-7.576-14.4 4.459-2.65-7.576 14.4-4.459-2.66-7.576-14.39 4.46-2.65-7.576 14.39-4.46-2.65-7.576-14.39 4.46-1.32-3.788c-.73-2.089.29-4.288 2.27-4.903l10.79-3.345-2.65-7.576c-5.12 1.588-20.05 6.213-25.18 7.804zm7.57 10.249l15.9 45.456c1.44 4.099 4.77 7.055 8.57 8.094-2.04 4.729-2.2 10.102-.44 15.139 4.41 12.588 13.41 23.627 17.07 27.789 1.05 1.193 1.42 2.254 1.93 3.722l.12.351c1.46 4.178-.57 8.576-4.54 9.806-3.97 1.229-8.39-1.169-9.85-5.347l-35.95-102.78c-.73-2.089.29-4.288 2.27-4.903l4.21-1.309c.02 1.309.25 2.654.71 3.982zM727.704 915.645c-2.717-5.876-9.401-7.955-14.9-4.635l-90.205 54.462c-7.333 4.427-10.352 14.403-6.73 22.238 3.622 7.835 12.534 10.607 19.867 6.18l.291-.175c1.616-.969 3.627-2.177 5.576-4.848 2.984-4.088 10.981-14.236 20.769-20.146 5.647-3.409 12.673-1.409 15.343 4.368l1.642 3.552 6.649-4.014-4.926-10.657c-.905-1.959-.151-4.453 1.682-5.56l3.325-2.007 6.568 14.209 6.649-4.014-6.568-14.209 6.649-4.015 6.568 14.21 6.649-4.015-6.568-14.209 6.649-4.014 6.568 14.209 6.649-4.014-6.568-14.21 3.324-2.007c1.834-1.107 4.062-.414 4.967 1.545l4.926 10.657 6.649-4.014-11.494-24.867zm-8.332 9.574l-39.894 24.087c-3.597 2.172-5.809 6.124-6.15 10.243-4.765-1.334-9.82-.602-14.24 2.067-11.048 6.671-19.881 17.86-23.166 22.361-.941 1.291-1.873 1.85-3.162 2.623l-.308.186c-3.667 2.213-8.123.827-9.934-3.091-1.811-3.917-.301-8.905 3.365-11.119l90.205-54.461c1.833-1.107 4.061-.414 4.967 1.545l1.926 4.162a10.99 10.99 0 00-3.609 1.397zm439.218 202.401c-2.72-5.87-9.4-7.95-14.9-4.63l-90.2 54.46c-7.34 4.43-10.36 14.4-6.73 22.24 3.62 7.83 12.53 10.6 19.86 6.18l.29-.18c1.62-.97 3.63-2.18 5.58-4.85 2.98-4.08 10.98-14.23 20.77-20.14 5.65-3.41 12.67-1.41 15.34 4.37l1.64 3.55 6.65-4.02-4.92-10.65c-.91-1.96-.15-4.46 1.68-5.56l3.32-2.01 6.57 14.21 6.65-4.02-6.57-14.2 6.65-4.02 6.57 14.21 6.65-4.01-6.57-14.21 6.65-4.02 6.57 14.21 6.65-4.01-6.57-14.21 3.32-2.01c1.84-1.11 4.06-.41 4.97 1.55l4.93 10.65 6.65-4.01c-2.34-5.06-9.16-19.8-11.5-24.87zm-8.33 9.58l-39.9 24.08c-3.59 2.17-5.8 6.13-6.15 10.25-4.76-1.34-9.82-.61-14.24 2.06-11.04 6.67-19.88 17.86-23.16 22.36-.94 1.29-1.87 1.85-3.16 2.63l-.31.18c-3.67 2.22-8.12.83-9.94-3.09-1.81-3.92-.3-8.9 3.37-11.12l90.2-54.46c1.84-1.11 4.07-.41 4.97 1.55l1.93 4.16c-1.22.23-2.45.69-3.61 1.4zm-345.337 9.42c2.716-5.87 9.4-7.95 14.899-4.63l90.205 54.46c7.333 4.43 10.352 14.4 6.73 22.24-3.622 7.83-12.534 10.6-19.867 6.18l-.291-.18c-1.616-.97-3.627-2.18-5.576-4.85-2.984-4.09-10.981-14.23-20.769-20.14-5.647-3.41-12.673-1.41-15.343 4.37l-1.642 3.55-6.649-4.02 4.926-10.65c.906-1.96.151-4.46-1.682-5.56l-3.325-2.01-6.568 14.21-6.649-4.02 6.568-14.21-6.649-4.01-6.568 14.21-6.649-4.01 6.568-14.21-6.649-4.02-6.568 14.21-6.649-4.01 6.568-14.21-3.324-2.01c-1.833-1.11-4.061-.41-4.967 1.55l-4.926 10.65-6.649-4.01c2.339-5.06 9.15-19.8 11.495-24.87zm8.331 9.58l39.894 24.08c3.597 2.17 5.809 6.13 6.15 10.25 4.765-1.34 9.82-.61 14.24 2.06 11.048 6.67 19.881 17.86 23.166 22.36.941 1.29 1.873 1.85 3.162 2.63l.309.18c3.666 2.22 8.122.83 9.933-3.09s.301-8.9-3.365-11.12l-90.205-54.46c-1.833-1.11-4.061-.41-4.966 1.55l-1.927 4.16c1.223.23 2.444.69 3.609 1.4zM676.638 577.319c-5.951 1.844-9.01 8.443-6.818 14.709l35.956 102.78c2.923 8.355 11.757 13.152 19.692 10.693 7.935-2.459 12.014-11.256 9.091-19.611l-.116-.332c-.638-1.84-1.434-4.131-3.609-6.6-3.329-3.781-11.496-13.778-15.397-24.93-2.251-6.434.79-13.401 6.641-15.214l3.598-1.115-2.65-7.576-10.794 3.345c-1.984.614-4.192-.585-4.923-2.673l-1.325-3.788 14.391-4.46-2.65-7.576-14.391 4.46-2.651-7.576 14.392-4.46-2.651-7.576-14.391 4.46-2.65-7.576 14.391-4.46-2.65-7.576-14.392 4.46-1.325-3.788c-.731-2.089.289-4.288 2.273-4.903l10.793-3.344-2.65-7.576-25.185 7.803zm7.574 10.249l15.901 45.456c1.434 4.099 4.765 7.055 8.564 8.094-2.042 4.729-2.198 10.102-.436 15.139 4.404 12.588 13.405 23.627 17.071 27.789 1.051 1.193 1.419 2.254 1.929 3.722l.122.351c1.461 4.178-.578 8.577-4.545 9.806-3.968 1.229-8.385-1.169-9.846-5.346l-35.956-102.781c-.731-2.089.289-4.288 2.273-4.903l4.215-1.309c.016 1.31.243 2.655.708 3.982zm623.138-85.197c-2.72 5.876-.15 12.703 5.72 15.217l96.31 41.245c7.83 3.352 17.15-.295 20.77-8.13 3.62-7.835.2-16.937-7.63-20.29l-.31-.133c-1.72-.743-3.87-1.667-7.06-1.637-4.9.046-17.41-.33-27.86-4.806-6.03-2.581-8.87-9.643-6.2-15.42l1.64-3.552-7.1-3.041-4.92 10.658c-.91 1.959-3.24 2.87-5.19 2.032l-3.55-1.52 6.56-14.21-7.1-3.04-6.56 14.21-7.1-3.04 6.56-14.21-7.09-3.04-6.57 14.21-7.1-3.04 6.57-14.21-7.1-3.04-6.57 14.21-3.55-1.521c-1.96-.838-2.81-3.113-1.91-5.072l4.93-10.657-7.1-3.041c-2.34 5.061-9.15 19.796-11.49 24.868zm12.29 1.007l42.59 18.241c3.84 1.645 8.16 1.043 11.45-1.215 1.94 4.776 5.6 8.517 10.32 10.538 11.8 5.052 25.61 5.48 31 5.429 1.54-.015 2.53.413 3.91 1.006l.32.141c3.92 1.676 5.63 6.227 3.82 10.145-1.81 3.918-6.47 5.741-10.38 4.065l-96.32-41.245c-1.95-.838-2.81-3.113-1.91-5.072l1.93-4.165c.93.87 2.02 1.6 3.27 2.132zM813.718 762.545c5.952 1.844 9.01 8.443 6.818 14.709l-35.956 102.78c-2.923 8.355-11.756 13.152-19.692 10.693-7.935-2.459-12.013-11.256-9.09-19.611l.115-.332c.639-1.84 1.434-4.131 3.609-6.6 3.33-3.781 11.496-13.778 15.398-24.93 2.25-6.434-.791-13.401-6.642-15.214l-3.597-1.115 2.65-7.576 10.793 3.345c1.984.614 4.193-.585 4.923-2.673l1.325-3.788-14.391-4.46 2.651-7.576 14.391 4.46 2.65-7.576-14.391-4.46 2.65-7.576 14.391 4.46 2.651-7.576-14.392-4.46 2.651-7.576 14.391 4.46 1.325-3.788c.731-2.089-.289-4.288-2.272-4.903l-10.794-3.344 2.65-7.576 25.185 7.803zm-7.573 10.249l-15.902 45.456c-1.434 4.099-4.765 7.055-8.563 8.094 2.041 4.729 2.197 10.102.435 15.139-4.403 12.588-13.405 23.627-17.071 27.789-1.051 1.193-1.419 2.254-1.928 3.722l-.123.351c-1.461 4.178.578 8.577 4.546 9.806 3.967 1.229 8.384-1.169 9.846-5.346l35.955-102.781c.731-2.089-.288-4.288-2.272-4.903l-4.216-1.309a12.495 12.495 0 01-.707 3.982zm497.345-585.825c-2.86-5.803-.45-12.696 5.36-15.365l95.3-43.783c7.74-3.559 17.14-.16 20.95 7.577 3.81 7.737.6 16.927-7.14 20.486l-.31.142c-1.7.788-3.82 1.768-7.02 1.823-4.9.084-17.4.791-27.74 5.542-5.96 2.741-8.63 9.875-5.82 15.58l1.72 3.508-7.02 3.227-5.18-10.524c-.95-1.934-3.3-2.784-5.24-1.894l-3.51 1.614 6.9 14.032-7.02 3.227-6.91-14.032-7.02 3.227 6.9 14.032-7.02 3.227-6.91-14.031-7.02 3.227 6.9 14.032-7.02 3.227-6.9-14.032-3.52 1.614c-1.93.889-2.73 3.187-1.78 5.121l5.18 10.524-7.03 3.227c-2.46-4.997-9.62-19.548-12.08-24.555zm12.26-1.333l42.15-19.364c3.8-1.746 8.13-1.258 11.47.912 1.83-4.826 5.4-8.663 10.07-10.809 11.67-5.362 25.46-6.155 30.85-6.247 1.55-.027 2.53-.481 3.89-1.11l.32-.149c3.88-1.78 5.48-6.375 3.58-10.244-1.91-3.868-6.61-5.568-10.48-3.788l-95.3 43.783c-1.94.89-2.74 3.187-1.79 5.122l2.02 4.112c.91-.895 1.99-1.653 3.22-2.218zM354.631 1052.3c-5.952 1.85-9.01 8.45-6.818 14.71l35.956 102.78c2.922 8.36 11.756 13.16 19.691 10.7 7.936-2.46 12.014-11.26 9.091-19.61l-.115-.34c-.639-1.84-1.434-4.13-3.609-6.6-3.33-3.78-11.496-13.77-15.398-24.93-2.251-6.43.791-13.4 6.641-15.21l3.598-1.12-2.65-7.57-10.794 3.34c-1.983.62-4.192-.58-4.923-2.67l-1.325-3.79 14.392-4.46-2.651-7.57-14.391 4.46-2.65-7.58 14.391-4.46-2.65-7.58-14.392 4.46-2.65-7.57 14.391-4.46-2.65-7.58-14.391 4.46-1.325-3.79c-.731-2.08.288-4.28 2.272-4.9l10.794-3.34-2.651-7.58c-5.125 1.59-20.048 6.21-25.184 7.8zm7.573 10.25l15.902 45.46c1.434 4.1 4.765 7.05 8.563 8.09-2.041 4.73-2.198 10.11-.436 15.14 4.404 12.59 13.405 23.63 17.071 27.79 1.052 1.19 1.42 2.26 1.929 3.72l.123.35c1.461 4.18-.578 8.58-4.546 9.81-3.967 1.23-8.384-1.17-9.846-5.35l-35.956-102.78c-.73-2.09.289-4.28 2.273-4.9l4.216-1.31c.015 1.31.242 2.66.707 3.98zM9.699 611.998c-5.348 3.312-6.794 10.496-3.222 16.013l58.577 90.497c4.762 7.357 14.437 9.749 21.568 5.332 7.13-4.416 9.058-13.994 4.296-21.35l-.188-.292c-1.044-1.622-2.344-3.641-5.023-5.479-4.102-2.815-14.328-10.422-20.685-20.242-3.667-5.665-2.323-13.202 2.935-16.458l3.233-2.002-4.318-6.671-9.699 6.007c-1.783 1.104-4.201.506-5.392-1.333l-2.159-3.335 12.932-8.01-4.318-6.67-12.931 8.009-4.318-6.67 12.932-8.01-4.318-6.67-12.932 8.009-4.318-6.67 12.932-8.01-4.318-6.67-12.932 8.009-2.159-3.335c-1.19-1.839-.708-4.234 1.075-5.338l9.699-6.007-4.318-6.671-22.631 14.017zm9.71 8.003l25.906 40.024c2.336 3.609 6.25 5.624 10.173 5.66-.89 5.109.198 10.362 3.068 14.796 7.175 11.084 18.452 19.488 22.967 22.587 1.295.888 1.897 1.823 2.73 3.117l.2.309c2.38 3.679 1.416 8.467-2.149 10.676-3.565 2.208-8.403 1.012-10.784-2.666l-58.577-90.498c-1.19-1.839-.709-4.233 1.074-5.338l3.787-2.349a12.233 12.233 0 001.605 3.682zM1359.58 728.309c-6.21-5.724-6.69-17.539 1.12-26.945 7.88-9.493 19.04-10.439 25.2-4.767 7.21 6.65 5.57 18.776-1.02 26.816l-14.75 19.264 1.39 2.202 22.55-6.954c8-2.775 17.74-1.248 22.37 6.065.02.025.03.051.04.076 6.83-.188 13.97 3.825 18.21 10.521l2.22 3.504-6.65 4.675-2.22-3.505c-2.24-3.541-5.9-6.008-9.44-6.624-.52 8.09-7 14.626-14.5 17.281-11.34 4.017-21.43-1.093-24.04-9.263-.99-3.094-.88-6.48.24-9.719l-8.1 2.49-38.57 50.686c-6.91 9.043-19.52 10.473-28.11 3.188l-3.09-2.623 20.62-27.383-31.86 9.633-1.11-4.027c-3.09-11.148 3.01-22.866 13.6-26.123l59.22-18.047 5.29-6.921c-3.27-.154-6.27-1.352-8.61-3.5zm21.05-25.37c-3.84-3.536-10.5-.146-13.91 3.969-3.52 4.246-5.67 11.565-1.87 15.059 3.84 3.536 10.49.146 13.91-3.969 3.41-4.106 5.71-11.521 1.87-15.059zm7.01 55.033c1.62 5.093 9 5.702 13.92 3.961 4.9-1.737 10.44-6.916 8.82-12.01-1.63-5.094-9-5.703-13.92-3.961-4.9 1.736-10.44 6.915-8.82 12.01zm-73.59 44.834c4.67 1.744 10.08.309 13.35-3.972l22.59-29.687-13.72 4.151-22.22 29.508zm-8.14-37.94c-5.01 1.542-8.35 6.248-8.62 11.452l61.36-18.555 6.22-8.202-1.4-2.215-57.56 17.52z" fill="#FFEBCC"/></svg>