<svg width="108" height="74" fill="none" xmlns="http://www.w3.org/2000/svg"><path d="M3.115 56.05c0-.51-.07-.885-.21-1.125-.14-.25-.42-.375-.84-.375h-.15v-.45h4.08c2.02 0 3.555.43 4.605 1.29 1.06.85 1.59 2.05 1.59 3.6 0 .99-.225 1.865-.675 2.625-.44.75-1.1 1.335-1.98 1.755-.87.42-1.92.63-3.15.63h-3.27v-7.95zM6.34 63.4c.7 0 1.32-.175 1.86-.525.55-.35.975-.855 1.275-1.515.31-.66.465-1.43.465-2.31 0-.87-.155-1.63-.465-2.28-.3-.66-.725-1.17-1.275-1.53-.55-.36-1.18-.54-1.89-.54-.37 0-.785.035-1.245.105v8.49c.26.05.46.08.6.09.14.01.275.015.405.015h.27zm10.535.75c-.73 0-1.37-.16-1.92-.48a3.36 3.36 0 01-1.245-1.32 4.016 4.016 0 01-.435-1.875c0-.69.145-1.31.435-1.86.29-.56.705-1 1.245-1.32.55-.33 1.19-.495 1.92-.495s1.365.165 1.905.495c.55.32.97.76 1.26 1.32.29.55.435 1.17.435 1.86 0 .69-.145 1.315-.435 1.875-.29.55-.71.99-1.26 1.32-.54.32-1.175.48-1.905.48zm0-.675c.51 0 .9-.275 1.17-.825.27-.55.405-1.275.405-2.175 0-.9-.135-1.625-.405-2.175-.27-.55-.66-.825-1.17-.825-.51 0-.9.275-1.17.825-.27.55-.405 1.275-.405 2.175 0 .9.135 1.625.405 2.175.27.55.66.825 1.17.825zM24.897 67c-1.14 0-2.04-.185-2.7-.555-.65-.36-.975-.95-.975-1.77 0-.5.2-.915.6-1.245a3.6 3.6 0 011.425-.705c-.45-.14-.675-.415-.675-.825 0-.34.2-.59.6-.75-.43-.15-.79-.41-1.08-.78a1.99 1.99 0 01-.42-1.23c0-.82.29-1.415.87-1.785.59-.37 1.375-.555 2.355-.555h3.15v.405l-1.35.18c.42.16.76.405 1.02.735.27.33.405.67.405 1.02 0 .82-.28 1.41-.84 1.77-.55.36-1.345.54-2.385.54-.52 0-.9.03-1.14.09-.24.05-.36.17-.36.36 0 .16.12.265.36.315.24.05.62.08 1.14.09 1.08.02 1.96.235 2.64.645.69.4 1.035.975 1.035 1.725 0 .82-.33 1.41-.99 1.77-.65.37-1.545.555-2.685.555zm0-6.15c.8 0 1.2-.57 1.2-1.71 0-.56-.11-.99-.33-1.29-.22-.3-.51-.45-.87-.45-.37 0-.665.145-.885.435-.21.29-.315.725-.315 1.305 0 1.14.4 1.71 1.2 1.71zm0 5.475c.52 0 .925-.14 1.215-.42.29-.27.435-.68.435-1.23 0-.44-.14-.805-.42-1.095-.27-.3-.64-.495-1.11-.585l-.705-.075c-.35.15-.615.365-.795.645-.18.28-.27.65-.27 1.11 0 .55.145.96.435 1.23.29.28.695.42 1.215.42zm7.401-2.175c-1.17 0-1.975-.205-2.415-.615-.16-.15-.26-.36-.3-.63a8.62 8.62 0 01-.06-1.155h.525c.09.52.295.94.615 1.26.32.31.765.465 1.335.465 1 0 1.5-.34 1.5-1.02 0-.26-.11-.475-.33-.645-.21-.17-.55-.36-1.02-.57l-.78-.33c-.64-.28-1.12-.585-1.44-.915a1.66 1.66 0 01-.48-1.2c0-.63.26-1.12.78-1.47.53-.35 1.22-.525 2.07-.525 1.17 0 1.975.205 2.415.615.16.15.26.36.3.63.04.27.06.655.06 1.155h-.525c-.09-.52-.295-.935-.615-1.245-.32-.32-.765-.48-1.335-.48-.43 0-.75.095-.96.285-.21.18-.315.425-.315.735 0 .25.085.46.255.63.18.16.45.32.81.48l.9.375c.74.31 1.27.625 1.59.945.33.31.495.72.495 1.23 0 .64-.285 1.135-.855 1.485-.56.34-1.3.51-2.22.51zm4.302-6.69c.33-.22.615-.485.855-.795.25-.32.375-.68.375-1.08l-.225.045c-.29 0-.515-.08-.675-.24-.16-.17-.24-.395-.24-.675s.08-.5.24-.66c.16-.17.385-.255.675-.255.31 0 .55.115.72.345.18.23.27.505.27.825 0 .59-.135 1.11-.405 1.56-.26.45-.7.88-1.32 1.29l-.27-.36zM46.78 67c-1.14 0-2.04-.185-2.7-.555-.65-.36-.975-.95-.975-1.77 0-.5.2-.915.6-1.245a3.6 3.6 0 011.425-.705c-.45-.14-.675-.415-.675-.825 0-.34.2-.59.6-.75-.43-.15-.79-.41-1.08-.78a1.99 1.99 0 01-.42-1.23c0-.82.29-1.415.87-1.785.59-.37 1.375-.555 2.355-.555h3.15v.405l-1.35.18c.42.16.76.405 1.02.735.27.33.406.67.406 1.02 0 .82-.28 1.41-.84 1.77-.55.36-1.346.54-2.386.54-.52 0-.9.03-1.14.09-.24.05-.36.17-.36.36 0 .16.12.265.36.315.24.05.62.08 1.14.09 1.08.02 1.96.235 2.64.645.69.4 1.035.975 1.035 1.725 0 .82-.33 1.41-.99 1.77-.65.37-1.544.555-2.684.555zm0-6.15c.8 0 1.2-.57 1.2-1.71 0-.56-.11-.99-.33-1.29-.22-.3-.51-.45-.87-.45-.37 0-.664.145-.884.435-.21.29-.316.725-.316 1.305 0 1.14.4 1.71 1.2 1.71zm0 5.475c.52 0 .925-.14 1.215-.42.29-.27.435-.68.435-1.23 0-.44-.14-.805-.42-1.095-.27-.3-.64-.495-1.11-.585l-.705-.075c-.35.15-.614.365-.794.645-.18.28-.27.65-.27 1.11 0 .55.145.96.434 1.23.29.28.695.42 1.215.42zm9.682-9.225c.18.13.31.275.39.435.08.15.12.23.12.24l-.765.585a1.412 1.412 0 00-.435-.405c-.18-.12-.38-.18-.6-.18-.58 0-1.025.155-1.335.465.04.32.06.56.06.72V64h-1.95v-5.1c0-.51-.07-.885-.21-1.125-.13-.25-.405-.375-.825-.375h-.15v-.45h1.485c.34 0 .605.045.795.135.2.08.355.22.465.42a2.79 2.79 0 011.89-.705c.43 0 .785.1 1.065.3zm4.563 7.05c-.73 0-1.37-.16-1.92-.48a3.36 3.36 0 01-1.245-1.32 4.016 4.016 0 01-.435-1.875c0-.69.145-1.31.435-1.86.29-.56.705-1 1.245-1.32.55-.33 1.19-.495 1.92-.495s1.365.165 1.905.495c.55.32.97.76 1.26 1.32.29.55.435 1.17.435 1.86 0 .69-.145 1.315-.435 1.875-.29.55-.71.99-1.26 1.32-.54.32-1.175.48-1.905.48zm0-.675c.51 0 .9-.275 1.17-.825.27-.55.405-1.275.405-2.175 0-.9-.135-1.625-.405-2.175-.27-.55-.66-.825-1.17-.825-.51 0-.9.275-1.17.825-.27.55-.405 1.275-.405 2.175 0 .9.135 1.625.405 2.175.27.55.66.825 1.17.825zm8.276.675c-.73 0-1.37-.16-1.92-.48a3.36 3.36 0 01-1.245-1.32 4.016 4.016 0 01-.435-1.875c0-.69.145-1.31.435-1.86.29-.56.705-1 1.245-1.32.55-.33 1.19-.495 1.92-.495s1.365.165 1.905.495c.55.32.97.76 1.26 1.32.29.55.435 1.17.435 1.86 0 .69-.145 1.315-.435 1.875-.29.55-.71.99-1.26 1.32-.54.32-1.175.48-1.905.48zm0-.675c.51 0 .9-.275 1.17-.825.27-.55.405-1.275.405-2.175 0-.9-.135-1.625-.405-2.175-.27-.55-.66-.825-1.17-.825-.51 0-.9.275-1.17.825-.27.55-.405 1.275-.405 2.175 0 .9.135 1.625.405 2.175.27.55.66.825 1.17.825zm5.336-4.575c0-.51-.07-.885-.21-1.125-.13-.25-.404-.375-.825-.375h-.15v-.45h1.486c.65 0 1.075.19 1.275.57h.06c.55-.48 1.18-.72 1.89-.72.49 0 .915.095 1.275.285.37.18.635.37.795.57.24-.26.525-.465.855-.615.33-.16.755-.24 1.275-.24 1.75 0 2.624.92 2.624 2.76V64h-1.95v-4.455c0-.69-.11-1.195-.33-1.515-.22-.32-.51-.48-.87-.48-.27 0-.52.055-.75.165-.23.1-.41.235-.54.405.16.32.24.8.24 1.44V64h-1.95v-4.455c0-.69-.11-1.195-.33-1.515-.22-.32-.51-.48-.87-.48-.18 0-.365.05-.555.15-.19.09-.355.2-.495.33V64h-1.95v-5.1zm13.353-2.76c-.36 0-.64-.11-.84-.33-.19-.22-.285-.49-.285-.81 0-.26.075-.465.225-.615.16-.15.36-.225.6-.225.36 0 .635.11.825.33.2.22.3.49.3.81 0 .26-.08.465-.24.615a.791.791 0 01-.585.225zm-.975 2.76c0-.51-.07-.885-.21-1.125-.14-.25-.42-.375-.84-.375h-.15v-.45h1.8c.36 0 .635.06.825.18.19.12.325.32.405.6.08.27.12.66.12 1.17V64h-1.95v-5.1zm4.014 0c0-.51-.07-.885-.21-1.125-.13-.25-.405-.375-.825-.375h-.15v-.45h1.485c.34 0 .605.045.795.135.2.08.355.22.465.42.51-.47 1.24-.705 2.19-.705s1.66.225 2.13.675c.48.44.72 1.135.72 2.085V64h-1.95v-4.455c0-.69-.13-1.195-.39-1.515-.25-.32-.595-.48-1.035-.48-.53 0-.955.125-1.275.375V64h-1.95v-5.1zm11.313 8.1c-1.14 0-2.04-.185-2.7-.555-.65-.36-.975-.95-.975-1.77 0-.5.2-.915.6-1.245a3.6 3.6 0 011.425-.705c-.45-.14-.675-.415-.675-.825 0-.34.2-.59.6-.75-.43-.15-.79-.41-1.08-.78a1.99 1.99 0 01-.42-1.23c0-.82.29-1.415.87-1.785.59-.37 1.375-.555 2.355-.555h3.15v.405l-1.35.18c.42.16.76.405 1.02.735.27.33.405.67.405 1.02 0 .82-.28 1.41-.84 1.77-.55.36-1.345.54-2.385.54-.52 0-.9.03-1.14.09-.24.05-.36.17-.36.36 0 .16.12.265.36.315.24.05.62.08 1.14.09 1.08.02 1.96.235 2.64.645.69.4 1.035.975 1.035 1.725 0 .82-.33 1.41-.99 1.77-.65.37-1.545.555-2.685.555zm0-6.15c.8 0 1.2-.57 1.2-1.71 0-.56-.11-.99-.33-1.29-.22-.3-.51-.45-.87-.45-.37 0-.665.145-.885.435-.21.29-.315.725-.315 1.305 0 1.14.4 1.71 1.2 1.71zm0 5.475c.52 0 .925-.14 1.215-.42.29-.27.435-.68.435-1.23 0-.44-.14-.805-.42-1.095-.27-.3-.64-.495-1.11-.585l-.705-.075c-.35.15-.615.365-.795.645-.18.28-.27.65-.27 1.11 0 .55.145.96.435 1.23.29.28.695.42 1.215.42z" fill="#fff"/><path d="M74 20.973c-.947.703-3.481 1.071-4.678 1.071-.87 0-2.133-.055-4.577-.494-2.444-.44-3.676-1.673-3.89-2.422-.133-.463.182-.9.61-.93.534-.037 2.541 0 3.28-.186.184-.046 2.52-.739 2.898-1.413.311-.554.915-1.896.572-2.937-1.106-.558-3.47-.209-3.737-.67-.496-.855-1.732-2.625-2.709-2.863-1.22-.297.383-4.238-.915-4.127-1.037.09-2.288 1.674-2.784 2.454-.695 1.094-2.973 3.177-3.242 3.421-1.355 1.229-3.744 4.268-4.92 5.838-.569.758-2.079 3.666-4.04 4.33-2.77.936-6.143 1.686-7.856 2.774-1.985 1.262-3.587 3.304-2.813 6.181" stroke="#fff" stroke-width="2.5"/><path d="M73.75 22.012c0 11.494-9.094 20.762-20.25 20.762s-20.25-9.268-20.25-20.762c0-11.495 9.094-20.762 20.25-20.762s20.25 9.268 20.25 20.762z" stroke="#fff" stroke-width="2.5"/></svg>