<svg width="20" height="16" fill="none" xmlns="http://www.w3.org/2000/svg"><path d="M20 1.949a8.789 8.789 0 01-2.347.615c.816-.513 1.53-1.333 1.837-2.256-.816.513-1.633.82-2.653 1.025C16.122.513 15 0 13.877 0c-2.244 0-4.081 1.846-4.081 4.103 0 .307 0 .615.102.923A12.008 12.008 0 011.428.718c-.306.615-.51 1.333-.51 2.051a3.97 3.97 0 001.837 3.385A3.51 3.51 0 01.918 5.64c0 1.949 1.429 3.692 3.266 4-.306.103-.715.103-1.123.103-.306 0-.51 0-.816-.103.51 1.641 2.04 2.872 3.877 2.872-1.428 1.128-3.163 1.743-5.102 1.743-.306 0-.612 0-1.02-.102C1.837 15.282 3.98 16 6.327 16c7.55 0 11.632-6.256 11.632-11.692v-.513c.817-.308 1.53-1.026 2.041-1.846z" fill="#fff"/></svg>