<svg width="25" height="15" fill="none" xmlns="http://www.w3.org/2000/svg"><path d="M24.768 13.459c0-.103-.1-.103-.1-.206-.398-.822-1.293-1.849-2.486-2.979-.597-.514-.896-.925-1.095-1.13-.298-.411-.298-.72-.198-1.13.099-.309.497-.822 1.193-1.747.398-.514.597-.822.895-1.13 1.492-2.055 2.189-3.39 1.99-4.007l-.1-.103c-.1-.102-.199-.205-.398-.205-.199-.103-.497-.103-.795 0h-4.477l-.099.103c-.1.102-.1.102-.1.205-.397 1.13-.895 2.055-1.392 3.082-.298.514-.597 1.028-.895 1.439-.299.41-.498.719-.696.924-.2.206-.398.309-.498.514-.1.103-.298.206-.298.103-.1 0-.2 0-.2-.103l-.298-.308c-.1-.103-.1-.308-.198-.514V1.13c0-.103-.1-.308-.1-.41l-.298-.31c-.1-.103-.299-.103-.398-.206A8.65 8.65 0 0011.937 0C10.344 0 9.25.103 8.852.308c-.2.103-.398.206-.498.411-.199.206-.199.308-.1.308.498.103.896.309 1.095.617l.1.205c.099.103.099.309.198.617.1.308.1.616.1 1.027v1.644c0 .514-.1.822-.1 1.13 0 .308-.099.514-.198.617-.1.205-.1.308-.2.308 0 0 0 .103-.099.103-.1 0-.199.102-.398.102-.1 0-.298-.102-.398-.205a1.219 1.219 0 01-.497-.514c-.199-.205-.398-.514-.597-.925-.199-.41-.497-.821-.696-1.438l-.199-.41c-.1-.206-.298-.617-.497-1.131-.2-.514-.398-.925-.597-1.438a1.414 1.414 0 00-.299-.411h-.099s-.1-.103-.199-.103c-.1 0-.199-.103-.298-.103H.796C.398.72.199.822.099.925L0 1.027v.206c0 .103 0 .205.1.41.497 1.234 1.094 2.467 1.69 3.7.597 1.13 1.194 2.157 1.592 2.876.497.72.895 1.439 1.393 2.055.497.616.795 1.027.895 1.233l.398.41.298.309c.199.205.497.514.895.822.398.308.895.616 1.393.925.497.308 1.094.513 1.69.719.697.205 1.294.308 1.89.205h1.493c.298 0 .497-.103.696-.308l.1-.103c0-.102.099-.102.099-.205v-.411c0-.411 0-.72.1-1.027.099-.309.099-.514.198-.72.1-.205.2-.308.299-.41l.199-.206h.1c.198-.103.497 0 .695.205.299.206.597.514.796.822.2.308.498.617.895 1.028.398.41.697.719.896.822l.298.205c.199.103.398.205.696.308.299.103.498.103.697.103l3.382-.103c.298 0 .596-.103.795-.205.2-.103.299-.206.299-.411v-.411c-.2-.206-.2-.308-.2-.411z" fill="#fff"/></svg>