<svg width="126" height="113" fill="none" xmlns="http://www.w3.org/2000/svg"><path fill-rule="evenodd" clip-rule="evenodd" d="M38.06 100.589c-7.3-2.05-14.065-5.538-19.025-11.826C13.47 81.71 6.799 73.35 8.475 63.087c1.674-10.246 12.58-14.834 18.53-23.127 5.511-7.68 7.598-18.595 14.945-23.52 7.931-5.317 17.34-6.085 25.44-3.554 8.195 2.56 14.662 9.207 19.1 17.468 4.362 8.123 6.724 17.985 5.427 28.196-1.242 9.784-6.432 18.592-12.342 26.254-5.485 7.11-12.257 12.54-19.795 15.406-7.319 2.783-14.703 2.351-21.72.379z" fill="#FFE1B1"/><path fill-rule="evenodd" clip-rule="evenodd" d="M41.3 92.167c-6.064-1.704-11.684-4.6-15.808-9.818-4.625-5.853-10.17-12.79-8.783-21.301 1.385-8.498 10.442-12.298 15.382-19.174 4.574-6.366 6.302-15.419 12.402-19.5 6.586-4.407 14.402-5.04 21.132-2.937 6.807 2.128 12.183 7.644 15.872 14.498 3.628 6.74 5.594 14.92 4.522 23.39-1.027 8.114-5.334 15.417-10.24 21.77-4.553 5.894-10.175 10.394-16.436 12.768-6.078 2.305-12.212 1.943-18.042.304z" fill="#FFD490"/><path fill-rule="evenodd" clip-rule="evenodd" d="M42.788 86.327c-4.874-1.37-9.391-3.697-12.705-7.891-3.717-4.705-8.174-10.282-7.059-17.124 1.114-6.832 8.394-9.887 12.364-15.415 3.677-5.118 5.067-12.396 9.97-15.677 5.294-3.543 11.576-4.052 16.985-2.362 5.471 1.71 9.791 6.145 12.757 11.654 2.915 5.418 4.495 11.995 3.633 18.802-.826 6.524-4.288 12.395-8.232 17.502-3.66 4.739-8.179 8.357-13.211 10.266-4.885 1.853-9.816 1.562-14.502.245z" fill="#FFCB7A"/><g clip-path="url(#clip0)" fill="#015281"><path d="M110.537 26.206c-1.81-1.714-4.127-2.537-6.462-2.537a10.271 10.271 0 00-7.262 3.037l-.849.854-.85-.857a10.279 10.279 0 00-7.261-3.034c-2.335 0-4.652.823-6.462 2.537-3.982 3.771-4.052 10.08-.213 13.943l14.786 14.877L110.75 40.15c3.839-3.863 3.769-10.172-.213-13.943zm-1.623 12.095l-12.95 13.03-12.95-13.03a7.068 7.068 0 01-2.064-5.127 7.062 7.062 0 012.223-5.065c1.241-1.179 2.903-1.827 4.68-1.827 2.013 0 3.992.829 5.423 2.269l.85.857 1.835 1.848 1.837-1.848.849-.855a7.706 7.706 0 015.426-2.27c1.776 0 3.438.647 4.682 1.826a7.065 7.065 0 012.224 5.065 7.07 7.07 0 01-2.065 5.127zm16.136 24.301c-2.272-1.55-4.95-1.11-7.321.266-2.372 1.378-15.986 13.09-15.986 13.09l-13.402.003c-.623 0-1.298-.705-1.298-1.33 0-.734.636-1.307 1.298-1.307h8.2c2.87 0 6.082-1.881 6.082-5.226 0-3.555-3.213-5.227-6.082-5.227-4.98 0-5.948.02-5.948.02-1.995 0-4.018-.12-5.576-.958-2.078-1.072-4.473-1.678-7.028-1.678-4.29 0-8.132 1.722-10.766 4.437L53.237 78.548l15.583 15.68 5.195-5.226h26.302c2.618 0 5.145-.967 7.101-2.715l17.809-20.102c1.088-.972 1.026-2.76-.177-3.583zM105.587 84.42a8.06 8.06 0 01-5.27 1.965l-27.56.005-3.937 4.14-11.895-11.97 12.158-12.044c2.246-2.319 5.493-3.649 8.906-3.649 2.057 0 4.08.479 5.802 1.362 2.072 1.116 4.493 1.27 6.802 1.27 0 0 .995-.02 5.948-.02.033 0 3.485.028 3.485 2.612 0 1.783-2.08 2.614-3.485 2.614h-8.415c-1.81 0-3.722 1.32-3.722 4.095 0 2.064 1.66 3.745 3.722 3.745l14.539-.003s15.297-12.831 16.531-13.51c1.234-.68 2.738-1.13 4.01-.5L105.587 84.42z"/></g><defs><clipPath id="clip0"><path fill="#fff" transform="translate(53.237 22.343)" d="M0 0h72.763v73.214H0z"/></clipPath></defs></svg>