<svg width="115" height="90" fill="none" xmlns="http://www.w3.org/2000/svg"><path fill-rule="evenodd" clip-rule="evenodd" d="M40.024 5.608c10.157-1.328 20.4-8.588 29.68-4.232 9.494 4.459 14.732 15.571 16.544 25.938 1.69 9.672-3.535 18.703-7.147 27.83-3.35 8.465-6.272 17.164-13.057 23.211-7.277 6.486-16.302 12.107-26.02 11.615-9.552-.483-18.237-6.631-24.182-14.155-5.15-6.519-3.033-15.793-5.705-23.67C7.404 44.086-.945 37.815.087 29.365c1.078-8.815 7.778-16.373 15.388-20.9 7.265-4.322 16.175-1.762 24.55-2.857z" fill="#FFE5BC"/><path fill-rule="evenodd" clip-rule="evenodd" d="M42.974 11.665c8.775-1.137 17.624-7.351 25.64-3.622 8.203 3.816 12.728 13.327 14.293 22.2 1.46 8.28-3.053 16.01-6.174 23.82-2.895 7.246-5.419 14.693-11.28 19.868-6.287 5.551-14.084 10.363-22.48 9.942-8.252-.414-15.755-5.676-20.89-12.116-4.45-5.58-2.621-13.517-4.93-20.26C14.794 44.6 7.58 39.233 8.473 32c.93-7.545 6.719-14.014 13.293-17.889 6.276-3.699 13.974-1.508 21.209-2.445z" fill="#FFD697"/><path fill-rule="evenodd" clip-rule="evenodd" d="M44.017 19.724c6.715-.878 13.488-5.677 19.622-2.797 6.278 2.947 9.741 10.293 10.94 17.145 1.117 6.394-2.338 12.363-4.726 18.396-2.215 5.595-4.147 11.346-8.633 15.343-4.811 4.287-10.778 8.003-17.203 7.678-6.316-.32-12.058-4.384-15.989-9.357-3.405-4.309-2.005-10.44-3.771-15.646-1.808-5.327-7.327-9.473-6.645-15.058.712-5.827 5.142-10.823 10.173-13.815 4.804-2.857 10.695-1.165 16.232-1.889z" fill="#FFCB7A"/><path d="M50.868 39.156v4.229a1.062 1.062 0 002.125 0v-4.23 0a1.062 1.062 0 00-1.063-1.062h0a1.064 1.064 0 00-1.062 1.063zm13.056 2.573h0a9.258 9.258 0 00-8.55 5.708 9.243 9.243 0 002.006 10.079 9.255 9.255 0 0015.797-6.54v0a9.255 9.255 0 00-2.713-6.536 9.266 9.266 0 00-6.54-2.711zm0 16.37a7.132 7.132 0 01-6.586-4.397 7.119 7.119 0 011.545-7.763 7.13 7.13 0 0112.169 5.037 7.13 7.13 0 01-2.09 5.035 7.14 7.14 0 01-5.039 2.089z" fill="#015281" stroke="#015281" stroke-width=".214"/><mask id="a" maskUnits="userSpaceOnUse" x="46.698" y="9.54" width="66" height="66" fill="#000"><path fill="#fff" d="M46.698 9.54h66v66h-66z"/><path d="M108.174 56.379h-12.8l.102-.987v-.013l1.31-12.715v-.009l1.068-10.326a.955.955 0 00-.95-1.053H79.536a7.478 7.478 0 00-5.46-4.393v-4.884a.955.955 0 00-.959-.955h-6.602v-4.058h5.417a.956.956 0 00.955-.955 4.588 4.588 0 00-4.11-4.572l-8.56-.914a.955.955 0 00-1.058.95v4.536a.955.955 0 00.956.955h1.213v4.058H54.73a.956.956 0 00-.955.955v4.884a7.519 7.519 0 00-6.078 7.362v36.731a4.232 4.232 0 004.232 4.23H75.92a4.21 4.21 0 002.354-.718.952.952 0 00.922.717h32.256a.956.956 0 00.955-.955V60.608a4.238 4.238 0 00-4.232-4.23zm2.321 4.229v.136H91.11v-.136a2.321 2.321 0 012.32-2.32h14.744a2.322 2.322 0 012.321 2.32zm-17.064-4.23a4.238 4.238 0 00-4.232 4.23v5.555h-9.142l-1.025-9.926h14.436l-.015.142h-.022zM77.72 43.523h17.059l-1.114 10.805h-14.83l-.167-1.617-.948-9.188zm17.255-1.91H77.522l-.87-8.426h19.193l-.868 8.426zM61.07 12.557l7.503.801a2.686 2.686 0 012.23 1.718H61.07v-2.519zm2.17 4.429h1.364v4.058H63.24v-4.058zm8.922 5.968v3.787H55.687v-3.787h16.475zm3.757 50.341H51.93a2.324 2.324 0 01-2.32-2.319V34.245a5.598 5.598 0 015.597-5.594h17.435a5.582 5.582 0 014.744 2.625h-1.795a.957.957 0 00-.95 1.053l2.167 20.979.213 2.074v.005l1.218 11.78v3.81a2.321 2.321 0 01-2.32 2.318zm4.232-2.319v-2.903h9.048v5.222H80.15v-2.319zm30.344 2.32H91.11V62.653h19.385v10.641z"/></mask><path d="M108.174 56.379h-12.8l.102-.987v-.013l1.31-12.715v-.009l1.068-10.326a.955.955 0 00-.95-1.053H79.536a7.478 7.478 0 00-5.46-4.393v-4.884a.955.955 0 00-.959-.955h-6.602v-4.058h5.417a.956.956 0 00.955-.955 4.588 4.588 0 00-4.11-4.572l-8.56-.914a.955.955 0 00-1.058.95v4.536a.955.955 0 00.956.955h1.213v4.058H54.73a.956.956 0 00-.955.955v4.884a7.519 7.519 0 00-6.078 7.362v36.731a4.232 4.232 0 004.232 4.23H75.92a4.21 4.21 0 002.354-.718.952.952 0 00.922.717h32.256a.956.956 0 00.955-.955V60.608a4.238 4.238 0 00-4.232-4.23zm2.321 4.229v.136H91.11v-.136a2.321 2.321 0 012.32-2.32h14.744a2.322 2.322 0 012.321 2.32zm-17.064-4.23a4.238 4.238 0 00-4.232 4.23v5.555h-9.142l-1.025-9.926h14.436l-.015.142h-.022zM77.72 43.523h17.059l-1.114 10.805h-14.83l-.167-1.617-.948-9.188zm17.255-1.91H77.522l-.87-8.426h19.193l-.868 8.426zM61.07 12.557l7.503.801a2.686 2.686 0 012.23 1.718H61.07v-2.519zm2.17 4.429h1.364v4.058H63.24v-4.058zm8.922 5.968v3.787H55.687v-3.787h16.475zm3.757 50.341H51.93a2.324 2.324 0 01-2.32-2.319V34.245a5.598 5.598 0 015.597-5.594h17.435a5.582 5.582 0 014.744 2.625h-1.795a.957.957 0 00-.95 1.053l2.167 20.979.213 2.074v.005l1.218 11.78v3.81a2.321 2.321 0 01-2.32 2.318zm4.232-2.319v-2.903h9.048v5.222H80.15v-2.319zm30.344 2.32H91.11V62.653h19.385v10.641z" fill="#015281"/><path d="M108.174 56.379h-12.8l.102-.987v-.013l1.31-12.715v-.009l1.068-10.326a.955.955 0 00-.95-1.053H79.536a7.478 7.478 0 00-5.46-4.393v-4.884a.955.955 0 00-.959-.955h-6.602v-4.058h5.417a.956.956 0 00.955-.955 4.588 4.588 0 00-4.11-4.572l-8.56-.914a.955.955 0 00-1.058.95v4.536a.955.955 0 00.956.955h1.213v4.058H54.73a.956.956 0 00-.955.955v4.884a7.519 7.519 0 00-6.078 7.362v36.731a4.232 4.232 0 004.232 4.23H75.92a4.21 4.21 0 002.354-.718.952.952 0 00.922.717h32.256a.956.956 0 00.955-.955V60.608a4.238 4.238 0 00-4.232-4.23zm2.321 4.229v.136H91.11v-.136a2.321 2.321 0 012.32-2.32h14.744a2.322 2.322 0 012.321 2.32zm-17.064-4.23a4.238 4.238 0 00-4.232 4.23v5.555h-9.142l-1.025-9.926h14.436l-.015.142h-.022zM77.72 43.523h17.059l-1.114 10.805h-14.83l-.167-1.617-.948-9.188zm17.255-1.91H77.522l-.87-8.426h19.193l-.868 8.426zM61.07 12.557l7.503.801a2.686 2.686 0 012.23 1.718H61.07v-2.519zm2.17 4.429h1.364v4.058H63.24v-4.058zm8.922 5.968v3.787H55.687v-3.787h16.475zm3.757 50.341H51.93a2.324 2.324 0 01-2.32-2.319V34.245a5.598 5.598 0 015.597-5.594h17.435a5.582 5.582 0 014.744 2.625h-1.795a.957.957 0 00-.95 1.053l2.167 20.979.213 2.074v.005l1.218 11.78v3.81a2.321 2.321 0 01-2.32 2.318zm4.232-2.319v-2.903h9.048v5.222H80.15v-2.319zm30.344 2.32H91.11V62.653h19.385v10.641z" stroke="#015281" stroke-width=".429" mask="url(#a)"/><path d="M100.804 63.82c-1.934 0-3.475 1.884-3.475 4.155 0 2.272 1.541 4.155 3.475 4.155 1.933 0 3.474-1.883 3.474-4.155 0-2.271-1.541-4.154-3.474-4.154zm0 6.186c-.348 0-.683-.216-.936-.588-.252-.37-.413-.883-.413-1.443s.16-1.072.413-1.443.588-.587.936-.587c.347 0 .682.216.935.587.252.37.414.883.414 1.443s-.162 1.073-.414 1.443c-.253.372-.588.588-.935.588z" fill="#015281" stroke="#015281" stroke-width=".214"/></svg>