<svg width="113" height="90" fill="none" xmlns="http://www.w3.org/2000/svg"><path fill-rule="evenodd" clip-rule="evenodd" d="M44.716 1.66C54.729-.644 65.52-1.008 74.725 3.56c10.14 5.03 20.202 13.15 22.618 24.214C99.715 38.64 92.682 49.147 86.73 58.54c-4.768 7.525-12.57 11.733-19.7 17.07-7.262 5.436-13.25 14.045-22.314 14.38-9.132.338-16.1-7.386-23.547-12.684-7.537-5.362-16.953-9.53-19.973-18.276-3.036-8.793.18-18.572 4.384-26.869 3.768-7.437 11.147-11.642 17.721-16.766C30.158 10.05 36.245 3.61 44.716 1.66z" fill="#FFE6BE"/><path fill-rule="evenodd" clip-rule="evenodd" d="M45.537 8.625c8.396-1.934 17.445-2.24 25.163 1.594 8.503 4.223 16.94 11.038 18.966 20.324 1.989 9.118-3.909 17.938-8.9 25.82-3.998 6.315-10.54 9.847-16.518 14.326-6.09 4.563-11.112 11.788-18.711 12.07-7.657.283-13.5-6.2-19.745-10.646-6.32-4.5-14.216-7.999-16.748-15.34-2.546-7.379.152-15.586 3.676-22.55 3.16-6.241 9.347-9.77 14.86-14.071 5.75-4.485 10.854-9.89 17.957-11.527z" fill="#FBD497"/><path fill-rule="evenodd" clip-rule="evenodd" d="M44.755 16.35c6.42-1.502 13.34-1.74 19.242 1.238 6.503 3.28 12.954 8.572 14.504 15.783 1.52 7.081-2.99 13.93-6.806 20.052-3.057 4.904-8.06 7.647-12.632 11.126-4.656 3.543-8.497 9.154-14.308 9.373-5.856.22-10.324-4.814-15.099-8.267-4.833-3.496-10.87-6.212-12.807-11.913-1.947-5.73.116-12.104 2.81-17.512 2.417-4.848 7.148-7.589 11.364-10.928 4.397-3.483 8.3-7.681 13.732-8.952z" fill="#FFCB7A"/><g clip-path="url(#clip0)"><path d="M106.664 65.48l-2.858-.992a6.897 6.897 0 002.629-5.417v-2.093c0-3.81-3.101-6.91-6.913-6.91-3.812 0-6.914 3.1-6.914 6.91v2.093c0 2.194 1.03 4.15 2.63 5.417l-2.859.992a9.414 9.414 0 00-4.479 3.292h-7.722v-3.046a9.429 9.429 0 00-6.335-8.9l-2.86-.991a6.897 6.897 0 002.63-5.417v-2.094c0-3.81-3.101-6.908-6.913-6.908-3.812 0-6.914 3.099-6.914 6.908v2.094c0 2.194 1.03 4.15 2.63 5.417l-2.859.991a9.429 9.429 0 00-6.335 8.9v3.046h-9.986c-.579 0-1.048.468-1.048 1.047v8.653c0 .578.47 1.047 1.048 1.047h43.576a1.3 1.3 0 00.14-.01c.046.005.092.01.14.01h24.86c.579 0 1.048-.469 1.048-1.047V74.38a9.429 9.429 0 00-6.336-8.9zm-11.96-8.502a4.822 4.822 0 014.818-4.816 4.822 4.822 0 014.818 4.816v2.093a4.822 4.822 0 01-4.818 4.816 4.822 4.822 0 01-4.819-4.816v-2.093zm-32.822-8.654A4.822 4.822 0 0166.7 43.51a4.822 4.822 0 014.818 4.815v2.094a4.822 4.822 0 01-4.818 4.815 4.822 4.822 0 01-4.819-4.815v-2.094zm7.016 9.003l1.017.353-3.215 5.575-3.216-5.575 1.018-.353h4.396zm-13.581 8.4c0-3.118 1.98-5.9 4.928-6.923l1.225-.425 4.322 7.496a1.048 1.048 0 001.816 0l4.322-7.496 1.225.425a7.333 7.333 0 014.927 6.922v3.046H55.317v-3.046zm-11.034 5.138h42.444a9.383 9.383 0 00-.683 3.515v3.045h-41.76v-6.56zm66.622 6.56H88.139V74.38c0-3.118 1.98-5.9 4.927-6.923l4.258-1.477h4.396l4.257 1.477a7.333 7.333 0 014.928 6.923v3.045z" fill="#015281"/><path d="M106.366 16.29H95.725a1.047 1.047 0 100 2.094h10.641a4.543 4.543 0 014.539 4.537v14.515a4.543 4.543 0 01-4.539 4.536H91.98c-.579 0-1.048.468-1.048 1.047v4.452l-5.195-5.192a1.048 1.048 0 00-.74-.307h-8.52a4.543 4.543 0 01-4.54-4.536V22.92a4.543 4.543 0 014.54-4.536h14.35a1.047 1.047 0 100-2.094h-5.481v-.907c0-3.655-2.977-6.63-6.635-6.63H48.822c-3.658 0-6.634 2.975-6.634 6.63v2.315a1.047 1.047 0 002.095 0v-2.315a4.543 4.543 0 014.54-4.536H78.71a4.543 4.543 0 014.54 4.536v.907h-6.774c-3.658 0-6.634 2.975-6.634 6.63v11.515H58.879c-.579 0-1.048.468-1.048 1.046v4.452l-5.195-5.192a1.048 1.048 0 00-.74-.306h-3.074a4.543 4.543 0 01-4.539-4.537v-7.333a1.047 1.047 0 00-2.095 0v7.333c0 3.657 2.976 6.63 6.634 6.63h2.64l6.676 6.673a1.045 1.045 0 001.142.226c.39-.161.646-.543.646-.966v-5.933h9.917v.908c0 3.655 2.976 6.629 6.634 6.629h8.086l6.676 6.672a1.048 1.048 0 001.788-.74v-5.932h13.339c3.658 0 6.634-2.974 6.634-6.63V22.92c0-3.655-2.976-6.63-6.634-6.63z" fill="#015281"/><path d="M87.812 17.314h12.751M43.234 16.1l.027 9.802" stroke="#015281" stroke-width="2.198"/></g><defs><clipPath id="clip0"><path fill="#fff" transform="translate(42.188 8.754)" d="M0 0h70.812v70.763H0z"/></clipPath></defs></svg>