<svg width="110" height="94" fill="none" xmlns="http://www.w3.org/2000/svg"><path fill-rule="evenodd" clip-rule="evenodd" d="M48.258.838C57.598-.55 68.691-.958 75.47 5.663c6.72 6.564 4.074 17.722 5.427 27.054 1.08 7.434 2.393 14.444 1.678 21.922-.917 9.602.03 20.336-6.398 27.486-6.85 7.621-17.777 11.834-27.919 10.689-9.79-1.106-15.915-10.457-23.715-16.52-7.505-5.833-17.087-9.554-21.01-18.247-4.136-9.164-5.053-20.486-.52-29.457 4.34-8.586 15.133-10.61 23.301-15.62C33.62 8.489 39.797 2.096 48.258.838z" fill="#FFE0B0"/><path fill-rule="evenodd" clip-rule="evenodd" d="M47.525 9.474c7.646-1.137 16.728-1.471 22.278 3.95 5.502 5.376 3.335 14.513 4.444 22.155.883 6.087 1.958 11.828 1.373 17.952-.75 7.863.024 16.653-5.238 22.508-5.609 6.24-14.554 9.69-22.857 8.753-8.015-.905-13.03-8.563-19.416-13.528-6.144-4.777-13.989-7.824-17.201-14.943-3.386-7.504-4.137-16.776-.425-24.122 3.553-7.031 12.389-8.688 19.076-12.791 5.981-3.67 11.039-8.905 17.966-9.934z" fill="#FFD38E"/><path fill-rule="evenodd" clip-rule="evenodd" d="M46.132 18.136c6.25-.93 13.67-1.202 18.206 3.23 4.497 4.393 2.726 11.86 3.632 18.106.721 4.975 1.6 9.667 1.122 14.672-.614 6.427.02 13.611-4.28 18.396-4.584 5.101-11.894 7.92-18.68 7.154-6.55-.74-10.648-6.998-15.866-11.056-5.02-3.904-11.432-6.395-14.057-12.213-2.767-6.133-3.38-13.711-.347-19.715 2.903-5.747 10.124-7.101 15.59-10.455 4.887-2.999 9.02-7.277 14.68-8.119z" fill="#FFCB7A"/><path d="M41.25 51.5a1.25 1.25 0 100-2.5 1.25 1.25 0 000 2.5zm0 9.999a1.25 1.25 0 100-2.5 1.25 1.25 0 000 2.5zm0 10.001a1.25 1.25 0 100-2.5 1.25 1.25 0 000 2.5z" fill="#015281"/><path d="M106.25 24h-10c-.69 0-1.25-.56-1.25-1.25A3.75 3.75 0 0091.25 19h-7.5A3.75 3.75 0 0080 22.75v8.75h-3.75a3.75 3.75 0 00-3.75 3.75v20h-5V41.5a1.205 1.205 0 00-.046-.231 3.43 3.43 0 00.046-.394C67.5 36.41 59.125 34 51.25 34S35 36.41 35 40.875c.008.132.023.264.046.394A1.198 1.198 0 0035 41.5v30c0 4.104 8.175 6.25 16.25 6.25S67.5 75.604 67.5 71.5V57.75h5v20a3.75 3.75 0 003.75 3.75H80v8.75A3.75 3.75 0 0083.75 94h22.5a3.75 3.75 0 003.75-3.75v-10a3.75 3.75 0 00-3.75-3.75h-10c-.69 0-1.25-.56-1.25-1.25a3.75 3.75 0 00-3.75-3.75h-7.5A3.75 3.75 0 0080 75.25V79h-3.75c-.69 0-1.25-.56-1.25-1.25v-20h5V64a3.75 3.75 0 003.75 3.75h22.5A3.75 3.75 0 00110 64V54a3.75 3.75 0 00-3.75-3.75h-10c-.69 0-1.25-.56-1.25-1.25a3.75 3.75 0 00-3.75-3.75h-7.5A3.75 3.75 0 0080 49v6.25h-5v-20c0-.69.56-1.25 1.25-1.25H80v3.75a3.75 3.75 0 003.75 3.75h22.5a3.75 3.75 0 003.75-3.75v-10a3.75 3.75 0 00-3.75-3.75zM65 51.5c0 1.273-4.854 3.75-13.75 3.75S37.5 52.773 37.5 51.5v-6.849c3.069 2.028 8.511 3.099 13.75 3.099 5.239 0 10.681-1.071 13.75-3.099V51.5zm-27.5 3.479c3.032 1.825 8.406 2.771 13.75 2.771 5.344 0 10.718-.946 13.75-2.771V61.5c0 1.273-4.854 3.75-13.75 3.75S37.5 62.773 37.5 61.5v-6.521zM51.25 36.5c8.394 0 13.75 2.591 13.75 4.375 0 1.784-5.356 4.375-13.75 4.375S37.5 42.659 37.5 40.875c0-1.784 5.356-4.375 13.75-4.375zm0 38.75c-8.896 0-13.75-2.478-13.75-3.75v-6.521c3.032 1.825 8.406 2.771 13.75 2.771 5.344 0 10.718-.946 13.75-2.771V71.5c0 1.272-4.854 3.75-13.75 3.75zm31.25 0c0-.69.56-1.25 1.25-1.25h7.5c.69 0 1.25.56 1.25 1.25A3.75 3.75 0 0096.25 79h10c.69 0 1.25.56 1.25 1.25v10c0 .69-.56 1.25-1.25 1.25h-22.5c-.69 0-1.25-.56-1.25-1.25v-15zm0-26.25c0-.69.56-1.25 1.25-1.25h7.5c.69 0 1.25.56 1.25 1.25a3.75 3.75 0 003.75 3.75h10c.69 0 1.25.56 1.25 1.25v10c0 .69-.56 1.25-1.25 1.25h-22.5c-.69 0-1.25-.56-1.25-1.25V49zm25-11.25c0 .69-.56 1.25-1.25 1.25h-22.5c-.69 0-1.25-.56-1.25-1.25v-15c0-.69.56-1.25 1.25-1.25h7.5c.69 0 1.25.56 1.25 1.25a3.75 3.75 0 003.75 3.75h10c.69 0 1.25.56 1.25 1.25v10z" fill="#015281"/><path d="M86.25 36.5a1.25 1.25 0 100-2.5 1.25 1.25 0 000 2.5zm0-5a1.25 1.25 0 100-2.5 1.25 1.25 0 000 2.5zm0 31.25a1.25 1.25 0 100-2.5 1.25 1.25 0 000 2.5zm0-5a1.25 1.25 0 100-2.5 1.25 1.25 0 000 2.5zm0 31.25a1.25 1.25 0 100-2.5 1.25 1.25 0 000 2.5zm0-5a1.25 1.25 0 100-2.5 1.25 1.25 0 000 2.5z" fill="#015281"/></svg>